<?xml version="1.0" encoding="UTF-8"?>
<svg id="Layer_2" xmlns="http://www.w3.org/2000/svg" version="1.1" viewBox="0 0 89.1 137.8">
  <!-- Generator: Adobe Illustrator 29.5.1, SVG Export Plug-In . SVG Version: 2.1.0 Build 141)  -->
  <defs>
    <style>
      .st0 {
        fill: #172238;
      }
    </style>
  </defs>
  <path class="st0" d="M33.1,31.5c-.6,0-1.1-.5-1.1-1.1s.5-1.1,1.1-1.1,1.1.5,1.1,1.1-.5,1.1-1.1,1.1M33.1,28.9c-.8,0-1.5.7-1.5,1.5s.7,1.5,1.5,1.5,1.5-.7,1.5-1.5-.7-1.5-1.5-1.5"/>
  <path class="st0" d="M36.5,30.7c-.2,0-.4-.2-.4-.4s.2-.4.4-.4.4.2.4.4-.2.4-.4.4M34.2,32.4c-.3.2-.7.3-1.1.3s-.8,0-1.1-.3c-.8-.4-1.3-1.2-1.3-2.1,0-1.3,1.1-2.3,2.3-2.3s2.3,1.1,2.3,2.3-.5,1.7-1.3,2.1M35.5,32.4c0,0,.1,0,.2,0,0,0,0,0,0,0,0,0,.1.2.1.3s0,0,0,.1c0,0,0,0,0,.1-.1.1-.4.1-.5,0,0,0,0,0,0-.1s0,0,0-.1c0-.1,0-.2.1-.3,0,0,0,0,0,0,0,0,.1,0,.2,0M33.1,34.1c-.2,0-.4-.2-.4-.4s.2-.4.4-.4.4.2.4.4-.2.4-.4.4M31.1,32.9s0,0,0,.1c-.2.2-.4.2-.5,0,0,0,0,0,0-.1,0-.1,0-.3,0-.4,0,0,0,0,0,0,0,0,.1,0,.2,0s.1,0,.2,0,0,0,0,0c.1.1.1.3,0,.4M30.4,28.2c-.2-.2-.2-.4,0-.5,0,0,.2-.1.3-.1s.2,0,.3.1c.2.2.2.4,0,.5-.2.2-.4.2-.5,0M33.1,26.6c.2,0,.4.2.4.4s-.2.4-.4.4-.4-.2-.4-.4.2-.4.4-.4M35.2,27.7c0,0,.2-.1.3-.1s.2,0,.3.1.1.2.1.3,0,.2-.1.3c-.1.1-.4.1-.5,0,0,0-.1-.2-.1-.3s0-.2.1-.3M29.7,30.7c-.2,0-.4-.2-.4-.4s.2-.4.4-.4.4.2.4.4-.2.4-.4.4M36.5,29.5c-.3,0-.5.1-.6.3,0-.4-.2-.7-.4-1h0c.2,0,.4,0,.6-.2.2-.2.2-.4.2-.6s0-.4-.2-.6c-.3-.3-.9-.3-1.2,0-.2.2-.2.4-.2.6h0c-.3-.1-.7-.3-1-.4.2-.2.3-.4.3-.6,0-.5-.4-.8-.8-.8s-.8.4-.8.8.1.5.3.6c-.4,0-.7.2-1,.4,0-.2,0-.5-.2-.7h0c-.3-.3-.9-.3-1.2,0-.3.3-.3.9,0,1.2.2.2.4.2.6.2h0c-.2.3-.4.7-.4,1-.2-.2-.4-.3-.6-.3-.5,0-.8.4-.8.8s.4.8.8.8.5-.1.6-.3c0,.4.2.7.4,1-.2,0-.5,0-.7.2,0,0-.1.2-.2.3,0,.2,0,.3,0,.5,0,.2.1.3.2.5.2.2.4.2.6.2s.4,0,.6-.2h0c.1-.1.2-.3.2-.5,0,0,0-.1,0-.2.1,0,.2.2.4.2.2,0,.4.2.7.2-.2.2-.3.4-.3.6,0,.5.4.8.8.8s.8-.4.8-.8-.1-.5-.3-.6c.2,0,.5-.1.7-.2.1,0,.3-.1.4-.2h0c0,.1,0,.2,0,.2,0,.2.1.3.2.5.2.2.4.2.6.2s.4,0,.6-.2c.1-.1.2-.3.2-.5,0,0,0,0,0-.1,0-.1,0-.2,0-.3s-.1-.2-.2-.3c-.2-.2-.4-.3-.7-.2.2-.3.4-.7.4-1,.2.2.4.3.6.3.5,0,.8-.4.8-.8s-.4-.8-.8-.8"/>
  <path class="st0" d="M59.7,30.7c-.2,0-.4-.2-.4-.4s.2-.4.4-.4.4.2.4.4-.2.4-.4.4M57.3,32.5c-.3.2-.7.3-1,.3s-.7,0-1.1-.3c-.8-.4-1.3-1.2-1.3-2.1,0-1.3,1.1-2.3,2.3-2.3s2.3,1.1,2.3,2.3-.5,1.7-1.3,2.1M58.7,32.4c0,0,.1,0,.2,0,0,0,0,0,0,0,.1.1.1.3,0,.4,0,0,0,0,0,.1-.2.2-.4.2-.5,0,0,0,0,0,0-.1,0-.1,0-.3,0-.4,0,0,0,0,0,0,0,0,.1,0,.2,0M56.3,34.1c-.2,0-.4-.2-.4-.4s.2-.4.4-.4.4.2.4.4-.2.4-.4.4M54.2,32.9s0,0,0,.1c-.2.2-.4.2-.5,0,0,0,0,0,0-.1,0,0,0,0,0-.2,0-.1,0-.2.1-.3,0,0,0,0,0,0,0,0,.1,0,.2,0s.1,0,.2,0c0,0,0,0,0,0,0,0,.1.2.1.3s0,.1,0,.2M53.6,28.2c0,0-.1-.2-.1-.3s0-.2.1-.3c0,0,.2-.1.3-.1s.2,0,.3.1.1.2.1.3,0,.2-.1.3c-.2.2-.4.2-.5,0M56.3,26.6c.2,0,.4.2.4.4s-.2.4-.4.4-.4-.2-.4-.4.2-.4.4-.4M58.4,27.8c0,0,.1-.2.2-.2,0,0,0,0,.1,0,.2,0,.3.1.4.3,0,.2,0,.4-.3.5s-.4,0-.5-.3c0,0,0-.2,0-.3M52.9,30.7c-.2,0-.4-.2-.4-.4s.2-.4.4-.4.4.2.4.4-.2.4-.4.4M59.7,29.5c-.3,0-.5.1-.6.3,0-.4-.2-.7-.4-1h0c0,0,.1,0,.2,0,.5-.1.7-.6.6-1-.1-.5-.6-.7-1-.6-.2,0-.4.2-.5.4,0,.2-.1.3-.1.5-.3-.2-.7-.4-1-.4.2-.2.3-.4.3-.6,0-.5-.4-.8-.8-.8s-.8.4-.8.8.1.5.3.6c-.4,0-.7.2-1,.4h0c0-.3,0-.5-.2-.7-.3-.3-.9-.3-1.2,0-.2.2-.2.4-.2.6s0,.4.2.6c.2.2.4.2.6.2h0c-.2.3-.4.7-.4,1-.2-.2-.4-.3-.6-.3-.5,0-.8.4-.8.8s.4.8.8.8.5-.1.6-.3c0,.4.2.7.4,1-.2,0-.5,0-.7.2,0,0-.1.2-.2.3,0,0,0,.2,0,.3s0,.1,0,.2c0,.2.1.3.2.5.2.2.4.2.6.2s.4,0,.6-.2c.1-.1.2-.3.2-.4,0,0,0-.1,0-.2h0c.1,0,.3,0,.4.2.2,0,.4.2.6.2-.2.2-.3.4-.3.6,0,.5.4.8.8.8s.8-.4.8-.8-.1-.5-.3-.6c.2,0,.4-.1.6-.2.2,0,.3-.1.4-.2v.2c0,.2.1.3.2.4.2.2.4.2.6.2s.4,0,.6-.2c.1-.1.2-.3.2-.4,0-.2,0-.3,0-.5,0-.1-.1-.2-.2-.3h0c-.2-.2-.4-.3-.7-.2.2-.3.4-.7.4-1,.2.2.4.3.6.3.5,0,.8-.4.8-.8s-.4-.8-.8-.8"/>
  <path class="st0" d="M34.3,21.1c.2-.1.5-.2.8-.2-.1-.2-.2-.5-.2-.8h0c-.3-.2-.7-.1-1,0,0,.4.2.7.4,1h0"/>
  <path class="st0" d="M36,23.7c.3-.2.5-.5.6-.8,0,0,0,0,0,0-.2-.1-.4-.3-.6-.6-.2.2-.3.4-.6.6,0,.4.3.7.6.9"/>
  <path class="st0" d="M37.5,21.1s0,0,0,0c.3-.2.5-.6.5-1-.3-.2-.7-.2-1.1,0h0c0,.3,0,.6-.2.8.3,0,.5,0,.8.2"/>
  <path class="st0" d="M36.4,21.7c-.2,0-.3-.2-.4-.3.2,0,.3,0,.5,0,.2,0,.3.2.4.3-.2,0-.3,0-.5,0M35.8,20.7c0-.2,0-.3.1-.5,0,.1.1.3.1.5s0,.3-.1.5c0-.1-.1-.3-.1-.5M35.4,21.7c-.2,0-.3.1-.5,0,0-.1.2-.3.4-.3s.3-.1.5,0c0,.1-.2.3-.4.3M37.4,21.3c-.5-.3-1-.2-1.4,0,.4-.3.7-.7.7-1.2s-.3-1-.8-1.3c-.5.2-.8.7-.8,1.3s.3,1,.7,1.2c-.4-.2-.9-.2-1.4,0-.5.3-.7.8-.7,1.3.4.3,1,.3,1.5,0,.4-.3.7-.7.7-1.2,0,.5.3.9.7,1.2.5.3,1.1.2,1.5,0,0-.5-.2-1-.7-1.3"/>
  <path class="st0" d="M51.8,21.1c.2-.1.5-.2.8-.2-.1-.2-.2-.5-.2-.8h0c-.3-.2-.7-.1-1,0,0,.4.2.7.4,1h0"/>
  <path class="st0" d="M53.4,22.3c-.2.2-.3.4-.6.6,0,.4.3.7.6.9.3-.2.5-.5.6-.8,0,0,0,0,0,0-.2-.1-.4-.3-.6-.6"/>
  <path class="st0" d="M55,21.1s0,0,0,0c.3-.2.5-.6.5-1-.3-.2-.7-.2-1.1,0h0c0,.3,0,.6-.2.8.3,0,.5,0,.8.2"/>
  <path class="st0" d="M52.8,21.5c.2,0,.3-.1.5,0,0,.1-.2.3-.4.3s-.3.1-.5,0c0-.1.2-.3.4-.3M53.3,20.7c0-.2,0-.3.1-.5,0,.1.1.3.1.5s0,.3-.1.5c0-.1-.1-.3-.1-.5M54,21.5c.2,0,.3.2.4.3-.2,0-.3,0-.5,0-.2,0-.3-.2-.4-.3.2,0,.3,0,.5,0M53.4,21.4c0,.5.3.9.7,1.2.5.3,1.1.2,1.5,0,0-.5-.2-1-.7-1.3-.5-.3-1-.2-1.4,0,.4-.3.7-.7.7-1.2s-.3-1-.8-1.3c-.5.2-.8.7-.8,1.3s.3,1,.7,1.2c-.4-.2-.9-.2-1.4,0-.5.3-.7.8-.7,1.3.4.3,1,.3,1.5,0,.4-.3.7-.7.7-1.2"/>
  <path class="st0" d="M56.3,31.5c-.6,0-1.1-.5-1.1-1.1s.5-1.1,1.1-1.1,1.1.5,1.1,1.1-.5,1.1-1.1,1.1M56.3,28.9c-.8,0-1.5.7-1.5,1.5s.7,1.5,1.5,1.5,1.5-.7,1.5-1.5-.7-1.5-1.5-1.5"/>
  <path class="st0" d="M25.3,40.5c5.8-2.9,10.5-4.3,15.3-4.7h.2V10.3l-.4.3c-3.7,2.3-7,5.2-9.9,8.6,0,0,0,0,0,0-3.3,3.8-6,8.3-8.1,13.2,0,.2-.1.3-.2.5l-.2.5c0-.2-.2-.3-.2-.5,0-.1,0-.2-.2-.3,0,0,0-.1,0-.2.5-1.6,2.8-7.4,8-13.7,0,0,.1-.1.2-.2,3.5-4.1,8.3-8.3,14.7-11.6,6.6,3.4,11.3,7.7,14.7,11.7,0,0,.1.2.2.2,1.3,1.6,2.4,3.1,3.4,4.5,2.9,4.4,4.3,8.1,4.7,9.2,0,0,0,0,0,.1,0,.1-.1.2-.2.3,0,.1-.1.2-.2.4,0-.1-.1-.2-.2-.4,0-.2-.1-.3-.2-.5-2.1-5-4.8-9.4-8.1-13.2,0,0,0,0,0,0-2.9-3.4-6.2-6.2-9.9-8.6l-.4-.3v25.5h.2c4.7.4,9.4,1.9,15.2,4.7-.2.4-.3.7-.5,1.1-.3-.4-1-.7-1.7-.8-.5,0-.9,0-1.3.1-1-.2-.7-.6-.5-.8.1-.1.5,0,0-.3s-1.1-.2-1.1.4.8.9.8.9h0c-.2,0-.3.1-.4.2,0,0-2.2-.2-2.2-1.5s0,0,.2,0c.1.1.5.5.8.3.3-.1.3-.4.3-.6s0-.5,0-.5c0,0,0,0-.3-.1-.3-.2-.6-.2-.7.1,0,.3-.3.5-.4.4s-.1-.2,0-.4c0-.2.1-.6-.4-.7-.5,0-.8,0-.8,0,0,0-.1.3-.2.5-.1.2-.1.5.4.7.5.2.6.6.4.6s-.5,0-.6-.1c-.1-.1-.5,0-.5.3s-.2.7-.2.7c0,0,.3.1.5.2.2,0,.3-.1.5-.3.2-.2.2-.3.2-.1s-.2.5.1.7c.3.2.3.2.3.2,0,0,0-.2.2-.3s.2-.2,0-.3c-.2-.2,0-.4,0-.4,0,0,.2.5.7.8.4.3.8.5.4.6-.4.2-.9.3-1.6.3-1.6,0-1.8-.9-2.3-2.1-.2-.5,0-.9,0-1.1.1-.3.4-.2.3-.1,0,0,0,.6.3.3.3-.3.3-1.2-.5-1.2s-.6.9-.6,1c-.1-.2-.2-.4-.4-.6-1.2-1.6-2.6-1.4-3.7-.8-1,.4-1.2-.2-1.2-.3s.3-.5,0-.5-.6.4-.6.7c0,.9,1.1.6,1,.7-.7.6-1.1,1.4-2.2,1.9-.1,0-.2,0-.3.1-.1,0-.5,0-.8-.8-.4-.9.6-1.7.6-1.7,0,0,0,.6.3.7.3.2.5,0,.6,0h.3s0-.2,0-.4.2-.6,0-.7-.4-.1-.6-.1c-.2,0-.2,0-.2-.1s0-.3.5-.3c.4,0,.5-.4.5-.9,0-.4,0-.5,0-.5,0,0-.3.1-.6,0-.2,0-.7,0-.8.4s0,.9-.2.9c-.1,0-.4-.2-.3-.3s0-.6,0-.8-.5,0-.5,0c0,0-.9.9-.2,1.3.2.2.4.2.4.2s.1,0,0,.2c0,0-.2.2-.3,0-.1-.1-.4,0-.5.2,0,.2-.2.3-.2.3,0,0,.1.1.2.2,0,0,.4.2.6,0,.2-.1.4-.4.6-.4,0,0-.7.9-.7,1.7s.4.9.2.8c-.2,0-.4-.2-.6-.3-.7-.5-1.8-2.4-.5-3.9.5-.5,1.1-1,1.7-1.5h0c.5-.3.9-.8,1.2-1.3.1-.2.2-.3.3-.5.4-.6.6-1.3.6-1.8s-.2-1-.5-1.4h0c-.2-.2-.4-.7-.4-1.2s.3-.8.3-.8c-.1.3,0,.8.3.8.2,0,.4-.2.4-.6s-.3-.8-.7-.8-.7.5-.7,1.1c0,.5,0,.7,0,.7h-.1c0-.2-.1-.2-.2-.2-1.5-2.7.2-4.2.2-4.2,0,0-.2.5-.2.6,0,.2-.2.6,0,.8s.4.5.6.5.8-.5.8-.5c0,0,0-.1-.2-.4-.2-.3-.4-.3-.5-.3s-.3,0-.2-.2c0,0,.3-.3.5-.3s.6-.2.5-.7c0-.4,0-.7,0-.7,0,0-.5,0-.7-.1-.3,0-.9-.2-1,.2-.1.4,0,.8-.2,1-.1.1-.3,0-.3-.2s.1-.8-.3-.8-.5,0-.5,0c0,0-.1.4-.2.6,0,.2,0,.5.2.6.3,0,.5.2.5.3s-.2.2-.3.2c-.1,0-.4-.2-.6,0-.1.2,0,.5-.2.7,0,0,.2,0,.5.1.3.1.3,0,.5-.1s.2-.3.2-.3c0,0,.2,0,0,.3-.1.3-.4,1.1-.3,2-1.1-.8-2.1-1.6-2.1-3,0-1.5,4.6-3.9,4.6-6.5s-.2-1.2-.5-1.8c0,0-.3-.6-.4-1-.1-.5.2-.7.3-.7s0,.3,0,.4,0,.4.2.4.5-.2.5-.6-.3-.7-.7-.7-.8.3-.8.9c0,.4,0,.4,0,.4-.9-.9-2.3-1.5-2.7-2.5-.2-.4,0-.6,0-.6,0,0,0,.4.2.4.1,0,.1,0,.1-.2,0-.3,0-.6-.3-.6s-.4.3-.4.4c0-.2,0-.4,0-.6,0-.7.8-1.7,2.1-1.7,1.2,0,1.1,1.1,1.1,1.1,0,.4-.3.7-.7.9,0,0,0-.2,0-.4.2-.2.3-.4.3-.6s-.2-.3-.3-.4c-.1,0-.2,0-.2,0,0,0-.2,0-.2.1s-.2.2,0,.3c.1.1,0,.2,0,.2s-.2-.1-.2-.2,0-.3-.2-.4c-.2,0-.5,0-.5,0,0,0,0,.3,0,.5,0,.2,0,.6.3.8s.5,0,.6,0c0,0,0,.2-.1.2,0,0-.5.2-.5.6s0,.5,0,.5c0,0,.3.2.6.2.3,0,.7,0,.8-.2.2-.2,0-.6.2-.6.2,0,.3.1.3.3s.2.5.6.3c.3-.2.5-.4.5-.4,0,0-.1-.4-.1-.5,0-.3-.2-.4-.3-.4s-.5.2-.7.3c-.2.1-.6,0-.4,0,1.5-.4.9-2.6-.8-2.6h-.2s.2-.9-.1-.9-.3.9-.9,1.1h0c-1,.4-1.5,1.2-1.5,1.9s.5,1.6,1.2,2.3h0s.2.3,0,.3c-.4,0-1.1.2-1.1.8,0,.5.3.8.7.9.6.1.6,0,.6-.4s-.1-.4-.3-.4-.3,0-.2.3c0,0-.2,0-.2-.3s.2-.5.6-.5,1.3.5,1.3.6c.9.8,1.6,1.8,1.6,2.9s-.9,2.1-1.9,3c-.2.2,0-.9,0-1.2s-.2-1-.4-1.1c-.1-.1,0-.2.2,0s.3.3.4.6c0,.2.3.2.4.1.1,0,.5,0,.5,0,0,0,0,0,0-.2s0-.4-.1-.6-.5,0-.7,0-.1-.3.2-.4c.3,0,.5-.3.5-.5s0-.7,0-.7c0,0-.4,0-.8-.1-.4,0-.4.3-.5.6,0,.2-.3.3-.3.3,0,0-.2,0-.2-.2s.2-.3,0-.6-.6-.4-.9-.4h-.6s0,.3-.1.7c0,.4.3.6.3.6s0,.2,0,.2h-.3s0,.2.2.4c.2.2.5.2.6,0,.1-.1.5,0,.5,0,0,0-.2.3-.3.3s-.4,0-.6.2-.3.6-.2.9c0,.3,0,.5,0,.5,0,0,.2,0,.4-.1s.3-.4.3-.6.2,0,.2,0c0,0,0,.2,0,.3s.2.2.2.2c0,0,.1,0,.2-.2s0-.5-.2-.6,0-.6,0-.6c0,0,.6.6.6,1.5s-.7,1.8-.7,1.8c-.3.3-.4.4-.6.6h0s-.2.3,0-.4c.2-.7-.4-.9-.7-.9s-.6.2-.6.6c.1.9.5.2.5.2,0,0,.2-.5.3.3,0,.3.3.6,0,1-.2.4-.4.9-.4,1.4,0,1.1.7,1.9,1.5,2.6h0s1.3,1.1,1.4,1.1h0c.9.7,1.6,1.4,1.6,2.4s-.3,1.1-.8,1.6c-.1.2-.3.3-.4.5,0,0-.2.2-.3.3-.2.2-.3,0-.3-.3v-.5h0c0-.5-.3-.9-.4-1,0,0,.1-.2.3,0,.2.2.3.4.4.4s.5-.2.5-.2c0,0-.1-.5-.2-.7-.1-.2-.7-.1-.8-.2s0-.3.3-.3.4-.3.3-.5c0-.2-.2-.7-.2-.7-.4,0-.6-.1-1,0-.4.1-.2.6-.2.8,0,.2,0,.3-.2.2-.1,0-.3-.4-.3-.7,0-.3-.4-.4-.7-.4s-.6.2-.6.2c0,0,0,.3,0,.7,0,.4.5.5.8.5s.2.2.2.2-.3.3-.6.2-.4.3-.4.5c0,.2,0,.6,0,.6,0,0,0,0,.3,0,.3.1.5,0,.6-.1,0-.2.3-.5.5-.5.1,0,.2,0,.2.2s0,.3-.2.5c0,0,0,.2.1.3.1,0,.2.1.2.1.1,0,.2,0,.3-.1,0,0,.1-.2,0-.3,0-.2,0-.4,0-.4s.2.2.3.7c0,0,0,.2,0,.2,0,0,0,.2,0,.2,0,.7-.5,1.3-.8,1.6-.2.3-.2.3-.3.3.3-1-.3-1.5-.8-1.5s-.8.5-.8.8c0,.5.4.7.6.7.3,0,.4,0,.4-.4s-.3-.5-.3-.5c0,0,.9-.2.4,1.4,0,0-.1.2-.2.3-.7,1.2-.3,2.5-.3,2.5-.3-.2-.5-.4-.8-.6-.9-.6-1.5-.4-2,0-.2.2-.7.2-.9.1s-.4-.2-.5,0c0,.2.1.5.4.5s.7-.4.6-.1c0,0,0,.1-.1.2h0s-.8,1-1.8.5c0,0,.5-.3.5-.6s-.3-.6-.3-.7c0,0-.3,0-.5,0s-.4.3-.3.6c.1.3,0,.6-.2.5s-.2-.3-.4-.5c-.2-.2-.4-.3-.6-.1-.1.1-.4.1-.4.1,0,0,0,.3,0,.4s-.1.6.4.7c.3,0,.4,0,.4,0,0,0-.4.3-.4.3s-.3.5,0,.7l.2.2h.4c.1,0,.4-.2.5-.4,0-.2,0-.5.2-.5s.1.3.1.4.2.3.4.3.3-.2.3-.4,0-.5-.2-.5-.5,0-.8-.5c0,0,1,.7,2,.2-.5.9-.9,2.1-2.4,2.3-.6,0-1.2-.3-1.9-.7-.5-.3-1-1-1-1.3s.6-.4.6-.4c-.6.3-.2.8.1.8s.6-.3.6-.5c0,0,0-1-.8-1s-1,.5-1,.8.3.8.3.8h0c-.9-.5-1.8-.8-2.9-.4-.8.3-1.2.8-1.6,1.3h0c-.6.7-1.3,0-1.3,0,0,0-.1,1.1.9.9-.3.7-.2,1.9-.2,1.9,0,0-.5,1-1.2,1-.4-1-.9-2.3-1.6-3.9M24.8,39.4c4.9-2.5,9.4-4,14.5-4.8h.1V12.9h-.2c-8.2,5.2-12.8,13.7-15.5,19.5,0,.2-.1.3-.2.5-.3.7-.6,1.3-.9,1.9h0c-.1-.3-.2-.5-.4-.8.2-.4.3-.8.5-1.1,0-.2.1-.3.2-.5,3.8-9,9.8-16.2,17.3-21.1v24c-4.7.4-9.4,1.9-15.2,4.7,0-.2-.2-.4-.3-.6M22.9,35.2v-.2c.4-.6.7-1.3,1-2,0-.2.1-.3.2-.5,2.7-5.7,7.2-13.9,15.1-18.9v20.8c-5.2.8-9.6,2.3-14.5,4.8-.5-1.2-1.1-2.5-1.8-3.9M21.1,30c0-.5.5-.8,1-.6-.2.5-.4.9-.6,1.3-.3-.1-.4-.4-.4-.6M20.9,32.4h0c-.3,0-.4-.3-.5-.6,0-.2,0-.4.1-.5.1-.2.3-.3.5-.3.1,0,.3,0,.4,0h0c-.2.6-.4,1.1-.5,1.3M22.7,27.6c0,0,.2,0,.3,0-.2.4-.4.9-.6,1.3-.2-.1-.4-.4-.4-.6,0-.4.3-.7.7-.7M23.8,26c-.2.4-.5.8-.7,1.2-.2-.1-.3-.3-.3-.6,0-.5.5-.8,1-.6M24.4,24.3c0,0,.2,0,.4,0-.3.4-.5.8-.7,1.2-.2-.1-.3-.3-.3-.6,0-.4.3-.7.7-.7M25.4,22.7c.1,0,.3,0,.4.1-.3.4-.5.8-.7,1.1-.2-.2-.4-.4-.4-.6,0-.4.3-.7.7-.7M26.4,21.2c.1,0,.3,0,.4.1-.3.4-.5.8-.8,1.2-.2-.1-.3-.3-.3-.6,0-.4.3-.7.7-.7M27.5,19.6c.2,0,.3,0,.4.2h0c-.3.4-.6.8-.9,1.3h0c-.2-.3-.3-.5-.3-.7,0-.4.3-.7.7-.7M28.6,18.2c.1,0,.3,0,.4.1h0c-.3.4-.6.8-.9,1.1h0c-.2-.1-.3-.3-.3-.6,0-.4.3-.7.7-.7M29.8,16.7c.2,0,.3,0,.5.2,0,0,0,0,0,0h.1c-.4.3-.7.7-1.1,1.1h0c-.1-.2-.2-.4-.2-.6,0-.4.3-.7.7-.7M31.1,15.4c.2,0,.4,0,.5.2-.3.3-.7.7-1,1-.1-.1-.2-.3-.2-.5,0-.4.3-.7.7-.7M32.4,14c.2,0,.4,0,.5.2,0,0,0,0,0,0-.3.3-.7.7-1,1-.1-.1-.2-.3-.2-.5,0-.4.3-.7.7-.7M33.8,12.7c.2,0,.4,0,.5.2h.1c-.4.3-.9.7-1.3,1.1h.1c-.1-.3-.2-.4-.2-.6,0-.4.3-.7.7-.7M35.2,11.5c.2,0,.4,0,.5.3-.4.3-.7.6-1.1.9,0,0-.2-.2-.2-.5,0-.4.3-.7.7-.7M36.7,10.4c.2,0,.4,0,.5.3l.4-.3c0-.1-.1-.3-.1-.4,0-.4.3-.7.7-.7s.4.1.6.3l.4-.3c0-.1-.1-.2-.1-.4,0-.4.3-.7.7-.7s.5.1.6.3c-1.5,1-2.9,2-4.2,3,0-.1-.2-.3-.2-.4,0-.4.3-.7.7-.7M41.3,7.2c.2,0,.5.1.6.4h0c-.4.2-.8.5-1.2.7h0c0-.1-.1-.2-.1-.4,0-.4.3-.7.7-.7M42.9,6.3c.3,0,.5.1.6.4-.4.2-.8.4-1.2.7,0,0-.1-.2-.1-.3,0-.4.3-.7.7-.7M44.6,4.7c.5.3.7.7.7,1.3s0,.3,0,.5c-.2-.1-.4-.2-.7-.3-.2.1-.4.2-.7.3,0-.2,0-.3,0-.5,0-.5.3-1,.7-1.3M46.3,6.3c.4,0,.7.3.7.7s0,.2-.1.4h0c-.4-.2-.8-.5-1.2-.7.1-.2.4-.4.6-.4M47.9,7.2c.4,0,.7.3.7.7s0,.3-.1.4c-.4-.2-.8-.5-1.2-.7.1-.2.4-.3.6-.3M49.5,8.2c.4,0,.7.3.7.7s0,.3-.1.4c-.4-.3-.8-.5-1.2-.8.1-.2.3-.3.6-.3M51,9.3c.4,0,.7.3.7.7s0,.3-.1.4h0c-.4-.3-.8-.5-1.2-.8.1-.2.3-.3.6-.3M52,10.6c.1-.2.3-.3.5-.3.4,0,.7.3.7.7s0,.3-.1.4c-.4-.4-.9-.7-1.4-1.1l.3.2h0ZM54,11.6c.4,0,.7.3.7.7s0,.3-.2.4c-.3-.3-.7-.6-1.1-.9.1-.2.3-.3.5-.3M55.4,12.8c.4,0,.7.3.7.7s0,.3-.2.5h0c-.3-.3-.7-.6-1-.9.1-.2.3-.2.5-.2M56.7,14.1c.4,0,.7.3.7.7s0,.4-.2.5c-.3-.3-.7-.7-1-1,.1-.1.3-.2.5-.2M58.1,15.4c.4,0,.7.3.7.7s0,.4-.2.5h0c-.3-.3-.6-.7-1-1,.1-.1.3-.2.5-.2M59.3,16.8c.4,0,.7.3.7.7s0,.4-.2.5h0c-.3-.3-.7-.7-1-1.1h.1c.1,0,.3,0,.5,0M60.1,18.3c.1,0,.3-.1.4-.1.4,0,.7.3.7.7s-.1.4-.3.6h0c-.3-.3-.6-.7-.9-1.1h0s0,0,0,0ZM61.2,19.8h0c.1,0,.3-.2.4-.2.4,0,.7.3.7.7s-.1.4-.3.6h0c-.3-.4-.6-.8-.8-1.1h0ZM62.8,21.2c.4,0,.7.3.7.7s-.1.4-.3.6c-.3-.4-.5-.8-.8-1.2.1,0,.3-.1.4-.1M63.8,22.7c.4,0,.7.3.7.7s-.2.5-.3.6c-.2-.4-.5-.8-.8-1.2.1,0,.2-.1.4-.1M64.8,24.3c.4,0,.7.3.7.7s-.1.5-.3.6c-.2-.4-.5-.8-.7-1.2.1,0,.3-.1.3-.1M66.3,26.7c0,.2-.1.5-.3.6-.2-.4-.4-.8-.7-1.2.5-.2,1,.2,1,.6M67.2,28.4c0,.3-.1.5-.4.6-.2-.4-.4-.8-.6-1.3,0,0,.2,0,.3,0,.4,0,.7.3.7.7M68,30.1c0,.3-.2.5-.4.6-.2-.4-.3-.8-.6-1.3.5-.2,1,.2,1,.6M68.2,31.1c.2,0,.3.1.5.3.1.2.2.3.1.5,0,.3-.2.5-.5.6,0-.2-.2-.7-.5-1.3h0c.1,0,.3,0,.4,0M66.5,34.7c-.3-.6-.5-1.2-.8-1.8,0-.2-.1-.3-.2-.5-2.7-5.8-7.3-14.3-15.5-19.4h-.2c0-.1,0,21.4,0,21.4h.1c5.2.8,9.7,2.3,14.5,4.8,0,.2-.2.4-.3.6-5.7-2.8-10.4-4.3-15.1-4.7V11.3c7.5,4.9,13.5,12.2,17.3,21.2,0,.2.1.3.2.5.1.3.3.7.4,1-.1.3-.3.5-.4.8M64.5,39.1c-4.8-2.5-9.3-4-14.4-4.8V13.5c7.9,5,12.4,13.3,15.1,19,0,.2.2.3.2.5.3.7.6,1.4.9,2v.2c-.6,1.5-1.2,2.8-1.7,4M31.3,42.9s0,0-.1.1h0s0,0,0,0c0,0,0,0,0,0v-.2c.1,0,.1,0,.1,0M27.1,45.1c.4,0,1-.2,1.4-1.2h0s0,0,0,0c0,0,0,0,0,0,0,0,0,0,0,0,0,0,0,0,0,0,0,0,0,0,0,0,0,0,0,0,0,0,0,0,0,0,0,0,0,0,0,0,0,0,0,0,0,0,0,0s0,0,0,0,0,0,0,0c0,0,0,0,0,0h0s0,0,0,0c0,0,0,0,0,0,0,0,0,0,0,0h0c0,0,.2,0,.2,0,0,0,.3,0,.6-.2h0s0,0,0,0c.4-.4.2-.9,0-1.1h0s0,0,0,0h0s0,0,0,0h0s0,0,0,0h0s0,0,0,0h-.2s0,0,0,0h0s0,0,0,0c-.4.3.3.7.3.7-1.1,0-1.1-1.3-.9-1.9,0-.3.2-.5.3-.8.6-1,2-1.4,3.1-.9.1,0,.2.1.3.2,0,0,.3.2,0,.3-.2,0-.8.7-.9,1,0,0-.1-.3,0-.4s.1-.5,0-.6-.4-.2-.4-.2c0,0-.3.1-.4.2,0,0,0,.4,0,.5.1.1.3.4.1.3-.2,0-.3-.1-.4-.3-.1-.1-.4-.3-.6-.1-.2.2-.4.3-.4.3,0,0,.1.2.2.5,0,.2.3.5.6.5s.4-.4.6-.2c.1.1-.2.3-.3.4s-.3.4-.1.8c.2.3.3.5.3.5,0,0,.3,0,.5-.3.2-.2.3-.5.3-.8s0-.5.2-.4c.1.1.2.8.6.6.4-.1.6-.3.6-.3,0,0,0-.5-.2-.7,0-.2-.5-.3-.7,0-.2.2-.6.5-.4.2.1-.3,1-1.5,2-1,.3.2.6.4.9.5.1,0,0,.2-.3,0-.3-.2-.8.3-.7.8,0,.4.4.4.6.1.1-.2,1-.7,1.5-.6.4,0,.7.1,1.1,0,1-.2,1.6-1.1,2.1-2,0,0-.2.3-.2,1s1,.5,1,.3-.5-.3-.5-.7.2-1.6.5-2.1c.3-.3.5-.6.9-.6s.7.2,1.1.5c.3.3.4.8.2.9-.2,0-.3-.6-1-.6s-.5.7-.5.7c0,0,.2.2.3.2s.3.2.2.3c0,0-.5,0-.7,0-.2,0-.4.2-.4.5v.5s.3,0,.4.1c.1.1.6.2.8,0,.2-.2.2-.9.3-.7.2.3,0,.6.8.6,0,0,.1-.6,0-.8s-.6-.2-.6-.2c0,0,1.1-.7,2.1,0,.8.6,1.5.9,1.8.9.8.2,1.5-.3,2.2-.9-.4.6-.1,1.1.3,1.2.4.1.7,0,.7-.2s-.2-.2-.4-.6c-.2-.4.2-.9.5-1.4.7-.6,1.4-1.2,2.1-1.3,1.1-.1,1.5.6,2,1.6,0,0-.6-.7-1.5.1,0,0,.2-.4.1-.5,0-.2-.2-.3-.2-.3,0,0-.3.2-.4.3,0,0,0,.3,0,.5s-.3.1-.3-.1,0-.5-.2-.5-.6-.1-.6-.1c0,0-.2.4-.3.5,0,.2,0,.4.3.5.3,0,.4.4.2.3s-.8,0-.8.3,0,.8,0,.8c0,0,.6.2.8.2s.6,0,.6-.4.4-.5.4-.3-.3.6,0,.8.6.3.6.3c0,0,.2-.2.2-.4,0-.2,0-.5,0-.5-.2,0,0-.3,0-.2.2.1.4,0,.5-.1s.1-.3.1-.3c0,0-.3-.2-.4-.3s-.4,0-.5.2c-.1.1-.3,0-.1-.1.2-.2,1.4-.8,1.9.4.1.3.3.6.4.8,0,0-.3-.2-.7-.2s-.7.3-.6.6c0,.2.2.5.5.5s.1-.7.5-.3.8.6,1.5.9c.7.4,1.2.3,1.3.3h0c0,0,.2,0,.2,0h0c0,0,.2,0,.3,0h0c0,0,.2,0,.2,0,0,0,0,0,0,0,0,0,.2,0,.3,0h0c0,0,.2,0,.3,0,0,0,0,0,0,0,0,0,.2,0,.2,0,0,0,0,0,0,0,0,0,.2,0,.3-.1h0s0,0,0,0h0s0,0,0,0h0c0,0,0,.1-.1.2h0s0,0,0,0h0c-.7,1.5.9,1.5,1.1.9h0v-.2h0s0,0,0,0h0s0,0,0,0h0s0,0,0,0h0s0,0,0,0c-.2,0-.2.2-.3.1-.2,0-.2-.4.1-.8.3-.5.6-.7,1.1-.9.5-.2,1.1-.4,1.8-.2.3,0,.5.2.8.4-.5.2-.8.5-.8.5-.1,0-.2-.5-.8-.5s-.4.5-.4.5c0,0,.2.1.3.1s.2.1.2.2c0,0-.4,0-.5,0s-.3.2-.3.4v.4s.2,0,.3.1c0,0,.5.2.6,0,.1-.2.1-.7.3-.5.1.2,0,.5.7.5,0,0,.1-.5,0-.6s-.5-.2-.5-.2c0,0,.9-.4,1.5-.4-.7,1.6-1.1,2.8-1.3,3.5-.2,0-.3-.2-.5-.2.4.2.8.4,1.1.6.5-1.6,2-5.7,5.8-13.5h.2c.5-.1.8-.5.9-.9,0-.3,0-.6-.2-.9-.2-.2-.4-.4-.7-.5.1-.2.2-.4.2-.6,0-.6-.4-1-.9-1.1,0-.2.1-.3.1-.5,0-.6-.4-1.1-1-1.2,0-.2.1-.3.1-.5,0-.6-.4-1.1-1-1.2,0-.2.1-.3.1-.5,0-.6-.5-1.1-1.1-1.2,0-.1.1-.3.1-.4,0-.6-.5-1.1-1.1-1.2,0-.1,0-.3,0-.4,0-.6-.5-1.2-1.1-1.2,0-.1,0-.2,0-.4,0-.6-.5-1.2-1.2-1.2,0,0,0-.2,0-.3,0-.7-.6-1.2-1.2-1.2,0,0,0-.2,0-.3,0-.7-.6-1.2-1.3-1.2,0,0,0-.1,0-.2,0-.6-.5-1.2-1.2-1.2s-.1,0-.2,0c0,0,0-.1,0-.2,0-.6-.5-1.2-1.2-1.2s-.1,0-.2,0h0c0-.8-.5-1.3-1.2-1.3s-.2,0-.3,0h0c0-.7-.5-1.2-1.2-1.2s-.2,0-.3,0h0c0-.7-.5-1.2-1.2-1.2s-.2,0-.3,0c0-.6-.5-1.2-1.2-1.2s-.3,0-.4,0c0-.6-.5-1.1-1.2-1.1s-.3,0-.4,0c0-.6-.5-1.1-1.2-1.1s-.3,0-.5,0c0-.6-.6-1-1.2-1s-.3,0-.5.1c0-.7-.4-1.4-1.1-1.7h-.1s-.1,0-.1,0c-.7.3-1.1,1-1.1,1.7-.2,0-.3-.1-.5-.1-.6,0-1.1.4-1.2,1-.2,0-.3-.1-.5-.1-.6,0-1.1.5-1.2,1.1-.1,0-.3,0-.4,0-.6,0-1.1.5-1.2,1.1-.1,0-.2,0-.4,0-.6,0-1.2.5-1.2,1.2-.1,0-.2,0-.3,0-.6,0-1.2.5-1.2,1.2h0c0,0-.2,0-.3,0-.6,0-1.2.5-1.2,1.2h0c0,0-.2,0-.3,0-.6,0-1.2.5-1.2,1.2h0c0,.1-.1.1-.2.1-.6,0-1.2.5-1.2,1.2s0,.1,0,.2c0,0-.1,0-.2,0-.6,0-1.2.5-1.2,1.2s0,.1,0,.2c-.7,0-1.3.5-1.3,1.2s0,.2,0,.3c-.7,0-1.2.5-1.2,1.2s0,.2,0,.3c-.6,0-1.2.5-1.2,1.2s0,.2,0,.4c-.6,0-1.1.5-1.1,1.2s0,.3,0,.4c-.6,0-1.1.5-1.1,1.2s0,.3.1.4c-.6,0-1.1.6-1.1,1.2s0,.3.1.5c-.6,0-1,.6-1,1.2s0,.3.1.5c-.6,0-1,.6-1,1.2s0,.4.1.5c-.5.1-.9.6-.9,1.1s0,.4.2.6c-.3,0-.5.2-.7.5-.2.3-.3.6-.2.9,0,.4.4.8.8.9h.2c.4.8.7,1.5,1.1,2.2.2.3.3.6.4.9,0,0,0,0,0,0,0,.1.1.2.2.4.1.2.2.5.3.7,2.3,5,3.4,7.9,3.8,9.3.2-.1.4-.2.6-.3,0-.2-.2-.5-.3-.8"/>
  <path class="st0" d="M45.8,42.5c-.4,0-.8,0-1.2,0h.2c.3,0,.7,0,1.1,0"/>
  <path class="st0" d="M31.3,42.9s0,0,0,0v.2c-.1,0,0,0,0-.1"/>
  <path class="st0" d="M31.1,43h0s0,0,0,0h0"/>
  <path class="st0" d="M76.9,38.5c-.6-1.3-.8-2.1-.8-3s.5-1.5,1.2-1.5,1.2.6,1.2,1.5-.3,1.7-.8,3c-.1.2-.2.6-.4.9-.2-.3-.3-.7-.4-.9M70.8,34.3c.9,0,1.2.6,1.8,1.5.2.3.5,1.2.9,2.3h0c-.4.2-.6.5-.5.8.1.3.5.4.9.3h0c.9,2.4,1.9,5.3,1.9,5.3,0,0,.8-2,1.5-3.7.7,1.7,1.5,3.7,1.5,3.7,0,0,1-2.9,1.9-5.3h0c.4.2.8,0,.9-.3.1-.3-.1-.7-.5-.8h0c.4-1.1.8-2,.9-2.3.5-.9.8-1.5,1.8-1.5s.4-.5-.1-.5-1.5.6-2.3.6-.9-.4-1.2-.4-.4.4,0,.4.9.7.4,2c-.1.3-.3.7-.4,1.3h0c-.4-.2-.8,0-.9.3-.1.3.1.7.5.8h0c-.6,1.7-1.2,3.4-1.2,3.4,0,0-.5-1.1-1-2.2.1-.3.2-.6.3-.8.9-2.2,1-2.6,1-3.5s-.7-2-1.6-2-1.6.9-1.6,2,.1,1.3,1,3.5c0,.2.2.5.3.8-.5,1.1-1,2.2-1,2.2,0,0-.6-1.8-1.2-3.4h0c.4-.2.6-.5.5-.8-.1-.3-.5-.4-.9-.3h0c-.2-.5-.3-1-.4-1.2-.4-1.3-.1-2,.4-2s.4-.4,0-.4-.6.4-1.2.4-1.7-.6-2.3-.6-.4.5-.1.5"/>
  <path class="st0" d="M11.2,38.5c-.6-1.3-.8-2.1-.8-3s.5-1.5,1.2-1.5,1.2.6,1.2,1.5-.2,1.7-.8,3c-.1.2-.2.6-.4.9-.2-.3-.3-.7-.4-.9M5.1,34.3c.9,0,1.2.6,1.8,1.5.2.3.5,1.2.9,2.3h0c-.4.2-.6.5-.5.8.1.3.5.4.9.3h0c.9,2.4,1.9,5.3,1.9,5.3,0,0,.8-2,1.5-3.7.7,1.7,1.5,3.7,1.5,3.7,0,0,1-2.9,1.9-5.3h0c.4.2.8,0,.9-.3.1-.3-.1-.7-.5-.8h0c.4-1.1.8-2,.9-2.3.5-.9.8-1.5,1.8-1.5s.4-.5-.1-.5-1.5.6-2.3.6-.9-.4-1.2-.4-.4.4,0,.4.9.7.4,2c-.1.3-.3.7-.4,1.3h0c-.4-.2-.8,0-.9.3-.1.3.1.7.5.8h0c-.6,1.7-1.2,3.4-1.2,3.4,0,0-.5-1.1-1-2.2.1-.3.2-.6.3-.8.9-2.2,1-2.6,1-3.5s-.7-2-1.6-2-1.6.9-1.6,2,.1,1.3,1,3.5c0,.2.2.5.3.8-.5,1.1-1,2.2-1,2.2,0,0-.6-1.8-1.2-3.4h0c.4-.2.6-.5.5-.8-.1-.3-.5-.4-.9-.3h0c-.2-.5-.3-1-.4-1.2-.4-1.3-.1-2,.4-2s.4-.4,0-.4-.6.4-1.2.4-1.7-.6-2.3-.6-.4.5-.1.5"/>
  <path class="st0" d="M45.8,42.5c1.8,0,3.7.3,5.5.6-1.8-.3-3.6-.5-5.5-.6"/>
  <path class="st0" d="M27.4,45.9s0,.1,0,.2c5.3-2.7,11.2-4.2,17.2-4.2s11.5,1.3,16.6,3.9c-5-2.6-10.7-4.1-16.8-4.1s-12,1.5-17.1,4.2"/>
  <path class="st0" d="M44.5,42.5c-.2,0-.4,0-.6,0-.9,0-1.8,0-2.7.2,1.1,0,2.1-.1,3.2-.1h.1"/>
  <path class="st0" d="M27,46.9c.5-.3,1.1-.6,1.6-.9,3.7-1.8,7.7-2.9,11.9-3.3.2,0,.5,0,.7,0,.9,0,1.8-.1,2.7-.2.2,0,.4,0,.6,0,.4,0,.8,0,1.2,0,1.9,0,3.7.3,5.5.6,0,0,.1,0,.2,0,.2,0,.4,0,.6.1.2,0,.5.1.7.2,0,0,0,0,0,0,2.9.7,5.7,1.7,8.3,3.1.3.2.7.3,1,.5,0-.1,0-.3.2-.7-.4-.2-.8-.4-1.1-.6-5.1-2.5-10.8-3.9-16.6-3.9s-11.9,1.4-17.2,4.2c0,0,0-.1,0-.2-.2.1-.4.2-.6.3,0,.2.1.4.2.6,0,.1,0,0,0,0"/>
  <path class="st0" d="M59.3,107.8c-.1,0-.2.2-.1.3s.2.2.3.1c.1,0,.2-.2.1-.3s-.2-.2-.3-.1"/>
  <rect class="st0" x="36" y="123.9" width=".9" height=".9" transform="translate(-70.3 50.9) rotate(-39.1)"/>
  <polygon class="st0" points="11 110.2 11 111.1 11.9 111.1 11.9 110.2 11 110.2"/>
  <path class="st0" d="M13.2,113.8s0,0,0,0l.3.3s0,0,0,0l1.1-1.3-.4,1.8s0,0,0,0c0,0,0,0,0,0l1.8-.7-1.1,1.3s0,0,0,0l.3.3s0,0,0,0,0,0,0,0l1.7-1.9s0,0,0,0,0,0,0,0l-.4-.4s0,0,0,0l-1.7.6.4-1.7h0s0,0,0,0l-.4-.4s0,0,0,0,0,0,0,0l-1.7,1.9h0Z"/>
  <path class="st0" d="M18.3,115.7l-.2.7-.4-.3.6-.3ZM16.1,116.4s0,0,0,0l.4.3h0l.7-.4.7.6-.2.7h0s0,0,0,0l.4.3h0s0,0,0,0l.7-2.7h0s0,0,0,0l-.3-.2h0l-2.5,1.4s0,0,0,0"/>
  <path class="st0" d="M18.9,118.5s0,0,0,0l.4.2h0s0,0,0,0l.9-1.5.2,2.2h0l.4.3h0s0,0,0,0l1.4-2.2h0s0,0,0,0l-.4-.2h0s0,0,0,0l-.9,1.4v-2.1c-.1,0-.1,0-.2,0l-.5-.3s0,0,0,0l-1.4,2.2h0"/>
  <path class="st0" d="M22,120.3s0,0,0,0l.4.2h0s0,0,0,0l.8-1.5.3,2.2h0s.5.3.5.3h0s0,0,0,0l1.2-2.3s0,0,0,0l-.4-.2h0s0,0,0,0l-.8,1.5-.3-2.1s0,0,0,0l-.5-.3s0,0,0,0l-1.2,2.3h0Z"/>
  <path class="st0" d="M25.3,122.1s0,0,0,0l1.7.8h0s0,0,0,0c0,0,0,0,0,0l.2-.4h0s0,0,0,0l-1.2-.5.2-.5.8.3h0s0,0,0,0l.2-.4h0s0,0,0,0l-.8-.3.2-.5,1.1.5h0s0,0,0,0l.2-.4s0,0,0,0l-1.6-.7h0s0,0,0,0l-1,2.4h0"/>
  <path class="st0" d="M29.5,121.4l.5.2c0,0,.2,0,.2.2,0,.1,0,.2,0,.3,0,.2-.3.2-.5.2h-.4c0-.1.2-.7.2-.7h0ZM28.7,123.5h0s0,0,0,0l.3-.9.4.2v1.1h.1s0,0,0,0l.6.2h0s0,0,0,0,0,0,0,0c0,0,0-.1,0-.3,0-.3-.1-.8-.2-1,.3,0,.5-.2.6-.5.1-.3,0-.5,0-.8-.1-.2-.3-.3-.4-.3l-1.1-.4h0s0,0,0,0l-.9,2.4s0,0,0,0l.5.2h0Z"/>
  <path class="st0" d="M32.2,124.6c.1,0,.2,0,.3,0s.3,0,.4-.1c.2-.1.3-.3.4-.5.1-.4,0-.7-.5-1-.3-.2-.4-.3-.3-.4,0,0,0-.1.1-.2,0,0,.1,0,.2,0,.2,0,.3.2.4.4,0,0,0,0,0,0l.4-.2s0,0,0,0h0c0-.3-.3-.6-.8-.7-.5-.1-.9,0-1,.5-.1.5.2.8.6,1.1.2.2.3.3.3.5,0,.1-.2.2-.4.2-.3,0-.4-.3-.5-.5,0,0,0,0,0,0h-.4c0,.1,0,.1,0,.2h0,0c0,.2.3.6.8.8"/>
  <path class="st0" d="M47.1,113.5c0,.1-.2.2-.3.2s0,0,0,0c-.1,0-.2-.2-.2-.3s0,0,0,0c0-.1.2-.2.3-.2s0,0,0,0c.1,0,.2.2.2.3s0,0,0,0M46.9,112.8c0,0-.1,0-.2,0-.2,0-.4.1-.6.3-.3,0-.6,0-.6,0,0,0,.3,0,.5.3,0,.3.2.5.5.6h0c0,0,0,0,0,0,0,0,.1,0,.2,0,.2,0,.4-.1.6-.3.3,0,.6,0,.6,0,0,0-.3,0-.5-.3,0-.3-.2-.5-.5-.6"/>
  <path class="st0" d="M38.2,111.2c0,.1-.2.2-.3.2s0,0,0,0h0c-.1,0-.2-.2-.2-.3h0c0-.2.2-.3.3-.3s0,0,0,0c.1,0,.2.2.2.3h0M38.1,110.5c0,0-.1,0-.2,0-.2,0-.4.1-.6.3-.3,0-.6,0-.6,0,0,0,.3,0,.5.3,0,.3.2.5.5.6h0c0,0,0,0,0,0,0,0,0,0,.2,0,.2,0,.4-.1.6-.3.3,0,.6,0,.6,0,0,0-.3,0-.5-.3,0-.3-.2-.5-.5-.6"/>
  <path class="st0" d="M38.3,92.4c.2,0,.7-.3,1.4,0,.7.3,1,.6,1.4.5.2,0,.2-.2.2-.2,0,0,0-.1,0-.2-.2-.3-.7-.3-1.4-.4-.8-.1-1.1-.6-1.2-.8-.9-1.2.7-2.6,1.7-3.4,1-.7,2.8-1.8,3.7-.6.1.2.5.6.3,1.4-.1.8-.3,1.1,0,1.5,0,.1.2.1.2.1,0,0,.1,0,.2-.1.2-.3,0-.7,0-1.5-.1-.8.2-1.2.4-1.4.9-1.2,2.7-.2,3.7.6s2.6,2.1,1.7,3.4c-.1.2-.5.6-1.2.8-.8.1-1.2,0-1.4.4,0,.1,0,.2,0,.2,0,0,0,.1.2.2.4.1.7-.2,1.4-.5.7-.3,1.2-.2,1.4,0,1.5.5,1,2.5.6,3.7-.4,1.2-1.2,3.1-2.7,2.6-.2,0-.8-.2-1.1-.9-.3-.7-.4-1.1-.8-1.2-.2,0-.2,0-.2,0,0,0-.1,0-.1.2,0,.4.4.6.9,1.1.5.5.5,1.1.5,1.3,0,1.5-2.1,1.7-3.3,1.7s-3.3-.2-3.3-1.7,0-.8.5-1.3.9-.8.9-1.1-.1-.2-.1-.2c0,0,0,0-.2,0-.4.1-.5.5-.8,1.2-.3.7-.9.8-1.1.9-1.5.5-2.3-1.4-2.7-2.6-.4-1.2-.8-3.2.6-3.7M37.1,92.8c-.5.9-.3,2.3,0,3.4s1.1,2.4,2,2.8c0,1.4,0,2.3,0,2.3,0,0,.8-.4,2.1-.8.7.7,2,1,3.3,1s2.6-.3,3.3-1c1.3.3,2.1.8,2.1.8,0,0-.2-.9,0-2.3.9-.4,1.6-1.6,2-2.8.4-1.2.5-2.6,0-3.4.7-1.2,1.4-1.8,1.4-1.8,0,0-.9-.1-2.2-.6-.1-1-1.1-2-2.1-2.8-1-.7-2.3-1.3-3.3-1.1-.9-1.1-1.3-1.9-1.3-1.9,0,0-.4.8-1.3,1.9-1-.2-2.2.4-3.3,1.1-1,.7-1.9,1.8-2.1,2.8-1.3.5-2.2.6-2.2.6,0,0,.7.6,1.4,1.8"/>
  <path class="st0" d="M39.5,95.5c.3,1-.3,1.7,0,2.3.1.3.5.5.9.4.7-.2.9-1.3.9-1.3,0,0-.4.8-.9.9-.2,0-.3,0-.4-.2-.2-.5.6-1.1.2-2.3-.4-1.3-1.3-1.3-1.5-1.8,0-.2,0-.3.2-.4.4-.1,1.2.2,1.2.2,0,0-.8-.8-1.5-.6-.4.1-.6.5-.5.8.2.7,1.1.9,1.4,1.9"/>
  <path class="st0" d="M47,99c0,.2-.1.3-.3.3-.5,0-.8-.9-2.2-.9s-1.6.9-2.2.9-.3-.1-.3-.3c0-.5.6-1.1.6-1.1,0,0-1,.5-1,1.3s.3.7.6.7c.7,0,1.2-.8,2.2-.8s1.5.8,2.2.8.6-.3.6-.7c0-.8-1-1.3-1-1.3,0,0,.6.7.6,1.1"/>
  <path class="st0" d="M45.6,88.3c.1-.2.3-.2.4-.1.4.3.2,1.2,1.2,2,1.1.8,1.8.3,2.3.6.1,0,.2.2,0,.4-.3.4-1.1.6-1.1.6,0,0,1.1.2,1.6-.4.3-.4.2-.8,0-1-.6-.4-1.4,0-2.2-.7-.8-.6-.8-1.5-1.3-1.9-.3-.2-.7-.1-.9.2-.5.6,0,1.6,0,1.6,0,0,0-.9.2-1.2"/>
  <path class="st0" d="M43.1,88.2c.1,0,.3,0,.4.1.3.4.2,1.2.2,1.2,0,0,.5-1,0-1.6-.3-.4-.7-.4-.9-.2-.6.4-.5,1.3-1.3,1.9-.8.6-1.7.3-2.2.7-.3.2-.3.6,0,1,.5.6,1.5.4,1.5.4,0,0-.9-.2-1.1-.6-.1-.2,0-.3,0-.4.4-.3,1.2.2,2.3-.6,1.1-.8.8-1.6,1.2-2"/>
  <path class="st0" d="M44.5,92.3c.9,0,1.6.7,1.6,1.6s-.7,1.6-1.6,1.6c-.9,0-1.6-.7-1.6-1.6s.7-1.6,1.6-1.6M42.6,95.2c.3.4.7.7,1.2.9.5.7.6,1.9.7,1.9s.1-1.3.7-1.9c.5-.2.9-.5,1.2-.9.8-.3,2,0,2,0,0-.1-1.2-.5-1.6-1.2h0c0-.6-.2-1-.5-1.4,0-.9.7-1.9.6-2s-.9.9-1.7,1.2c-.2,0-.5-.1-.8-.1s-.5,0-.8.1c-.8-.2-1.6-1.2-1.7-1.2,0,0,.6,1.1.6,2-.3.4-.5.9-.5,1.4h0c-.5.8-1.7,1.2-1.6,1.3,0,.1,1.2-.3,2,0"/>
  <path class="st0" d="M48.6,97.8c-.4-.1-.9-.9-.9-.9,0,0,.2,1.1.9,1.3.4.1.8,0,.9-.4.2-.7-.4-1.4,0-2.3.3-1,1.2-1.2,1.4-1.9.1-.3,0-.7-.5-.8-.7-.2-1.5.6-1.5.6,0,0,.8-.3,1.2-.2.2,0,.3.2.2.4-.2.5-1.1.5-1.5,1.8-.4,1.3.3,1.8.2,2.3,0,.2-.2.2-.4.2"/>
  <path class="st0" d="M54.7,122.5h-.6c0,.1,0,.1,0,.1l-.5,1.7-1.1-1.4h0s0,0,0,0h-.6c0,.1,0,.1,0,.2l.5,2.5h0s0,0,0,0h.5c0,0,0-.1,0-.1,0,0,0,0,0,0l-.3-1.7,1.2,1.4s0,0,0,0c0,0,0,0,0,0l.6-1.8.3,1.7s0,0,0,0h.5c0,0,0-.1,0-.1l-.5-2.5s0,0,0,0"/>
  <path class="st0" d="M56.7,123.5v-.7c0,0,.5.5.5.5h-.5ZM56.8,122h0s0,0,0,0h-.4c0,.1,0,.1,0,.1l-.4,2.8s0,0,0,0c0,0,0,0,0,0h.5c0-.1,0-.2,0-.2h0s0,0,0,0v-.8c.1,0,1-.2,1-.2l.5.6h0s0,0,0,0h.5c0-.1,0-.2,0-.2h0s-1.7-2.2-1.7-2.2h0Z"/>
  <path class="st0" d="M59.8,122.4l.5-1.5s0,0,0,0,0,0,0,0l-.5.2h0l-.5,1.5-.4-1.1s0,0,0,0l-.5.2s0,0,0,0h0s.9,2.5.9,2.5c0,0,0,0,0,0h0l.5-.2s0,0,0,0h0s-.4-1.1-.4-1.1l1.4.8h0l.6-.2s0,0,0,0c0,0,0,0,0,0l-1.5-.8h0Z"/>
  <path class="st0" d="M63.5,119.5s0,0,0,0,0,0,0,0l-.5.2s0,0,0,0l-.3,1.1-1.1-.6h0l-.6.2s0,0,0,0c0,0,0,0,0,0l1.6.9.5,1.1s0,0,0,0h0l.5-.2s0,0,0,0l-.5-1.1.4-1.7h0Z"/>
  <path class="st0" d="M65.6,119l.8-.4s0,0,0,0h0s-.2-.4-.2-.4c0,0,0,0,0,0l-2.1,1.1s0,0,0,0l.2.4s0,0,0,0h0l.8-.4,1,1.8s0,0,0,0h0l.4-.2h0s-1-1.9-1-1.9Z"/>
  <path class="st0" d="M68.8,116.5s0,0,0,0h0l-.4.3s0,0,0,0l.6.9-1,.6-.6-.9s0,0,0,0h0l-.4.3s0,0,0,0h0s1.4,2.2,1.4,2.2c0,0,0,0,0,0h0l.4-.3s0,0,0,0l-.5-.8,1-.6.5.8s0,0,0,0l.4-.3s0,0,0,0h0s-1.4-2.2-1.4-2.2Z"/>
  <path class="st0" d="M73,113.3s0,0,0,0l-.4.3h0s.3,1.8.3,1.8l-1.7-.7h0l-.5.4s0,0,0,0c0,0,0,0,0,0l1.6,2h0s0,0,0,0l.4-.3s0,0,0,0h0s-1.1-1.3-1.1-1.3l1.7.7s0,0,0,0c0,0,0,0,0,0l-.4-1.9,1.1,1.3s0,0,0,0c0,0,0,0,0,0l.4-.3s0,0,0,0l-1.6-2s0,0,0,0"/>
  <path class="st0" d="M75.2,113.2l-.2-.6.6.3-.4.4h0ZM74.6,111.8h0l-.3.3s0,0,0,0l1,2.7s0,0,0,0h0s0,0,0,0l.4-.4s0,0,0,0h0,0l-.3-.7.7-.6.7.3h0l.4-.4s0,0,0,0c0,0,0,0,0,0l-2.6-1.1h0Z"/>
  <path class="st0" d="M77.3,108.9s0,0,0,0l-.3.3s0,0,0,0,0,0,0,0l1.3,1.1-2.1-.2s0,0,0,0l-.4.4s0,0,0,0l1.9,1.7s0,0,0,0,0,0,0,0l.3-.3s0,0,0,0c0,0,0,0,0,0l-1.3-1.2,2.2.2h0l.4-.4s0,0,0,0,0,0,0,0l-1.9-1.7s0,0,0,0"/>
  <path class="st0" d="M44.6,129.1s0,0,0,0c-.2.2-.5.4-.7.5.3.1.5.3.8.6.3-.3.5-.4.8-.6-.2-.1-.5-.3-.7-.5,0,0,0,0,0,0"/>
  <path class="st0" d="M25.5,64c-.1-.7,0-1.6.3-2.2.3-1,1-2.6,2.3-2.2.2,0,.6.2.9.8.3.6.4.9.7,1,.1,0,.2,0,.2,0,0,0,0,0,0-.2,0-.3-.3-.5-.8-1-.5-.5-.5-.9-.5-1.1,0-.6.4-1,1-1.2.6-.2,1.3-.3,1.8-.3s1.3,0,1.8.3c.6.2,1,.6,1,1.2s0,.7-.5,1.1c-.5.5-.8.6-.8,1s0,.2,0,.2c0,0,0,0,.2,0,.3-.1.4-.5.7-1,.3-.6.7-.7.9-.8,1.2-.4,1.9,1.2,2.3,2.2.2.6.4,1.5.3,2.2,0,.4-.3.8-.8.9-.2,0-.6.2-1.2,0-.6-.3-.8-.5-1.2-.4-.1,0-.1.1-.1.1,0,0,0,0,0,.2.2.3.6.2,1.2.3.6.1.9.5,1,.6.8,1.1-.6,2.2-1.4,2.8s-2.4,1.5-3.1.5c-.1-.2-.4-.5-.3-1.2s.3-1,0-1.2c0-.1-.2,0-.2,0,0,0-.1,0-.2,0-.2.3,0,.6,0,1.2s-.2,1-.3,1.2c-.8,1.1-2.3.2-3.1-.5-.9-.6-2.2-1.8-1.4-2.8.1-.2.4-.5,1-.6s1,0,1.2-.3c0-.1,0-.2,0-.2,0,0,0-.1-.1-.1-.3-.1-.6.1-1.2.4-.6.3-1,.1-1.2,0-.5-.2-.7-.5-.8-.9M27.7,69c.9.6,1.9,1.1,2.8.9.8.9,1.1,1.6,1.1,1.6,0,0,.3-.7,1.1-1.6.8.2,1.9-.3,2.8-.9.9-.6,1.6-1.5,1.8-2.3,1.1-.4,1.9-.5,1.9-.5,0,0-.6-.5-1.2-1.5,0-.2.2-.4.2-.6.1-.7,0-1.6-.2-2.3-.3-1-.9-2-1.7-2.4,0-.6,0-1.1,0-1.4,0,0,0-.2,0-.3,0-.2,0-.3,0-.3,0,0-.7.4-1.8.7,0,0,0,0-.1-.1-.3-.3-.7-.5-1.2-.6-.3,0-.6-.1-.9-.2-.2,0-.4,0-.6,0-1,0-2,.2-2.7.7,0,0,0,0-.1.1-.1,0-.3,0-.4-.1-.9-.3-1.4-.6-1.4-.6,0,0,0,.2,0,.6,0,.3,0,.8,0,1.4-.8.4-1.3,1.4-1.7,2.4-.3.8-.4,1.6-.2,2.3,0,.2.1.4.2.6-.6,1-1.2,1.5-1.2,1.5,0,0,.8.1,1.9.5.1.8.9,1.7,1.8,2.3"/>
  <path class="st0" d="M35,60.4c.2,0,.3,0,.3.1.2.4-.5.9-.1,2,.4,1.1,1.1,1.1,1.3,1.5h0c0,.1,0,.3-.2.3-.4.1-1-.2-1-.2,0,0,.7.7,1.3.5.3-.1.5-.3.4-.6,0,0,0,0,0-.1-.2-.6-.9-.8-1.2-1.6-.3-.8.2-1.4,0-2,0-.3-.4-.4-.8-.3-.6.2-.8,1.1-.8,1.1,0,0,.4-.6.7-.8"/>
  <path class="st0" d="M29.5,59.3c0-.2,0-.3.2-.3.5,0,.7.7,1.8.7s1.4-.7,1.8-.7.2,0,.2.3c0,.4-.5.9-.5.9,0,0,.9-.4.9-1.1s-.3-.6-.5-.6c-.6,0-1,.6-1.9.6s-1.3-.6-1.9-.6-.5.2-.5.6c0,.7.8,1.1.8,1.1,0,0-.5-.6-.5-.9"/>
  <path class="st0" d="M30.6,68.4c-.1.2-.2.2-.3,0-.4-.3-.1-1-1.1-1.7s-1.5-.2-1.9-.5c-.1,0-.1-.2,0-.4.2-.3.9-.5.9-.5,0,0-.9-.2-1.3.4-.2.3-.2.7,0,.8.5.4,1.2,0,1.9.6.7.5.6,1.3,1.1,1.6.2.2.6.1.8-.2.4-.5,0-1.4,0-1.4,0,0,0,.7-.2,1.1"/>
  <path class="st0" d="M32.8,68.5c-.1,0-.2,0-.3,0-.2-.3-.2-1.1-.2-1.1,0,0-.4.8,0,1.4.2.3.6.4.8.2.5-.4.5-1.1,1.1-1.6.7-.5,1.4-.2,1.9-.6.2-.2.3-.5,0-.8-.4-.5-1.3-.4-1.3-.4,0,0,.7.2.9.5.1.2,0,.3,0,.4-.4.3-1-.2-1.9.5s-.7,1.4-1.1,1.7"/>
  <path class="st0" d="M31.5,62.3c.7,0,1.4.6,1.4,1.4s0,.2,0,.3c-.2.6-.7,1-1.3,1s-1.2-.4-1.3-1c0-.1,0-.2,0-.3,0-.7.6-1.3,1.3-1.4M28.2,62.6c0,0,1,.4,1.4,1h0c0,.2,0,.3,0,.4,0,.3.2.6.4.8,0,.7-.6,1.6-.5,1.7,0,0,.7-.8,1.4-1,.2,0,.4.1.6.1s.4,0,.6-.1c.7.2,1.4,1,1.4,1,0,0-.5-.9-.5-1.7.2-.2.3-.5.4-.9,0-.1,0-.2,0-.3h0c.4-.6,1.4-1,1.4-1.1,0,0-1.1.2-1.7,0-.2-.3-.6-.6-1-.8-.5-.6-.5-1.6-.6-1.6s-.1,1.1-.6,1.6c-.4.1-.8.4-1,.7-.7.3-1.7,0-1.7,0"/>
  <path class="st0" d="M27.8,64.1s-.7.3-1,.2c-.2,0-.2-.2-.2-.3h0c.1-.5.9-.5,1.3-1.5.3-1.1-.3-1.5-.1-2,0-.1.2-.2.3-.1.4.1.7.8.7.8,0,0-.1-.9-.8-1.1-.4-.1-.7,0-.8.3-.2.6.3,1.2,0,2-.3.8-1,1-1.2,1.6,0,0,0,0,0,.1,0,.2.1.5.4.6.6.2,1.3-.5,1.3-.5"/>
  <path class="st0" d="M51.3,64c-.2-.7,0-1.6.3-2.2.3-.9.9-2.3,1.9-2.3.1,0,.3,0,.4,0,.2,0,.6.2.9.8.3.6.4.9.7,1,0,0,0,0,.1,0,0,0,0,0,0,0,0,0,0,0,0-.2,0-.3-.3-.5-.8-1s-.5-.9-.5-1.1c0-.6.4-1,1-1.2.6-.2,1.3-.3,1.8-.3h0c.5,0,1.2,0,1.8.3.6.2,1,.6,1,1.2s0,.7-.5,1.1c-.5.5-.8.6-.8,1s0,.2,0,.2c0,0,0,0,.2,0h0c.3-.1.4-.5.7-1,.3-.6.7-.7.9-.8.2,0,.3,0,.5,0,1,0,1.5,1.4,1.8,2.3.2.6.4,1.5.3,2.2,0,.4-.3.8-.8.9,0,0-.2,0-.5,0s-.5,0-.8-.2c-.5-.2-.7-.5-1-.5s-.1,0-.2,0c-.1,0-.1.1-.1.1,0,0,0,0,0,.2.2.3.6.2,1.2.3.6.1.9.5,1,.6.8,1.1-.6,2.2-1.4,2.8-.6.4-1.5,1-2.2.9-.4,0-.7-.1-.9-.5-.1-.2-.4-.5-.3-1.2s.3-1,0-1.2c0,0-.1,0-.2,0h0s0,0-.2,0c-.2.3,0,.6,0,1.2s-.2,1-.3,1.2c-.2.3-.5.5-.9.5-.8,0-1.7-.5-2.3-1-.9-.6-2.2-1.8-1.4-2.8.1-.2.4-.5,1-.6.6-.1,1,0,1.2-.3,0-.1,0-.2,0-.2,0,0,0-.1-.1-.1,0,0,0,0-.1,0-.3,0-.5.2-1.1.5-.3.1-.5.2-.7.2-.2,0-.4,0-.5,0-.5-.2-.7-.5-.8-.9M53.5,69c.8.6,1.7,1,2.5,1,.1,0,.2,0,.3,0h0c.8.9,1.1,1.6,1.1,1.6,0,0,0,0,0,0,0-.2.4-.8,1.1-1.6h0c0,0,.2,0,.3,0,.8,0,1.7-.4,2.4-1,.9-.6,1.6-1.5,1.8-2.3,1.1-.4,1.9-.5,1.9-.5,0,0-.6-.5-1.2-1.5,0-.2.2-.4.2-.6.1-.7,0-1.6-.2-2.3-.3-1-.9-2-1.7-2.4,0-.6,0-1.1,0-1.4,0-.3,0-.5,0-.5h0s-.5.3-1.4.5c-.1,0-.2,0-.4.1,0,0,0,0,0,0,0,0,0,0-.1-.1-.6-.5-1.7-.7-2.6-.7h0c-.1,0-.3,0-.4,0-.4,0-.8,0-1.1.2-.5.1-.9.3-1.2.6,0,0,0,0-.1.1,0,0,0,0,0,0-1-.2-1.6-.5-1.8-.6h0s0,0,0,.1c0,0,0,.2,0,.4,0,.3,0,.8,0,1.4-.8.4-1.3,1.4-1.7,2.4-.3.8-.4,1.6-.2,2.3,0,.2.1.4.2.6-.6,1-1.2,1.5-1.2,1.5,0,0,.8.1,1.9.5.1.8.9,1.7,1.8,2.3"/>
  <path class="st0" d="M60.8,60.4c0,0,.1,0,.2,0,0,0,.2,0,.2.2.2.4-.5.9-.1,2,.4,1.1,1.1,1.1,1.3,1.5h0c0,.1,0,.3-.2.3,0,0,0,0-.1,0-.3,0-.6-.1-.8-.2,0,0,0,0,0,0,0,0,.5.5,1.1.5,0,0,.1,0,.2,0,.3-.1.5-.3.4-.6,0,0,0,0,0-.1-.2-.6-.9-.8-1.2-1.6-.3-.8.2-1.4,0-2,0-.2-.2-.3-.5-.3,0,0-.2,0-.3,0-.6.2-.8,1.1-.8,1.1,0,0,0,0,0-.1.1-.2.4-.6.7-.6"/>
  <path class="st0" d="M55.7,60.2c-.1-.2-.5-.6-.5-.9s0-.3.2-.3h0c.4,0,.7.7,1.8.7h0c1.1,0,1.3-.7,1.8-.7h0c.1,0,.2.1.2.3,0,.4-.5.9-.5.9,0,0,0,0,.1,0,.2-.1.7-.5.7-1s-.2-.6-.5-.6h0c-.6,0-1,.6-1.8.6h0c-.8,0-1.3-.6-1.9-.6h0c-.3,0-.5.2-.5.6,0,.7.8,1.1.8,1.1,0,0,0,0,0,0"/>
  <path class="st0" d="M56.6,67.4s0,.7-.2,1.1c0,0-.1.1-.2.1,0,0-.1,0-.2,0-.4-.3-.1-1-1.1-1.7-.5-.3-.8-.4-1.2-.4h-.3c-.2,0-.3,0-.5,0-.1,0-.1-.2,0-.4.2-.3.9-.5.9-.5,0,0-.1,0-.3,0-.3,0-.8,0-1,.4-.2.3-.2.7,0,.8.5.4,1.2,0,1.9.6.7.5.6,1.3,1.1,1.6,0,0,.2,0,.3,0,.2,0,.3,0,.5-.3.3-.4.1-1,0-1.2,0,0,0-.1,0-.1"/>
  <path class="st0" d="M58.6,68.5s0,0-.1,0c0,0-.2,0-.2-.1-.2-.2-.2-.7-.2-.9h0c0-.1-.4.7,0,1.2.2.2.3.3.5.3,0,0,.2,0,.3,0,.5-.4.5-1.1,1.1-1.6.7-.5,1.4-.2,1.9-.6.2-.2.3-.5,0-.8-.2-.3-.7-.4-1-.4s-.3,0-.3,0c0,0,.7.2.9.5.1.2,0,.3,0,.4-.1,0-.3,0-.4.1h-.3c-.3,0-.7,0-1.2.4-.9.7-.7,1.4-1.1,1.7"/>
  <path class="st0" d="M57.3,62.3h0c.7,0,1.3.6,1.3,1.3s0,.2,0,.3c-.1.6-.7,1-1.3,1h0c-.6,0-1.2-.4-1.3-1,0-.1,0-.2,0-.3,0-.7.6-1.3,1.3-1.4M54,62.6c0,0,1,.4,1.4,1h0c0,.2,0,.3,0,.4,0,.3.2.6.4.8,0,.7-.6,1.6-.5,1.7,0,0,0,0,0,0,.2-.1.8-.8,1.4-1,0,0,0,0,0,0,.2,0,.4.1.6.1h0c.2,0,.4,0,.6-.1h0c.7.2,1.3,1,1.4,1h0c0-.1-.5-1-.5-1.7.2-.2.3-.5.4-.9,0-.1,0-.2,0-.3h0c.4-.6,1.4-1,1.4-1.1,0,0,0,0,0,0-.1,0-.4,0-.8,0h-.2c-.2,0-.5,0-.7-.1-.2-.3-.6-.6-1-.8-.4-.5-.5-1.4-.6-1.6,0,0,0,0,0,0-.1,0-.1,1.1-.6,1.6-.4.1-.8.4-1,.7-.2,0-.4.1-.7.1-.4,0-.8,0-1,0,0,0,0,0-.1,0"/>
  <path class="st0" d="M52.6,64.6c.4,0,.9-.4,1-.5,0,0,0,0,0,0,0,0-.5.2-.9.2s-.1,0-.2,0c-.2,0-.2-.2-.2-.3h0c.1-.5.9-.5,1.3-1.5.3-1.1-.3-1.5-.1-2,0-.1.1-.2.2-.2,0,0,0,0,0,0,.4.1.7.8.7.8,0,0,0,0,0-.1,0-.3-.2-.9-.7-1,0,0-.2,0-.2,0-.3,0-.5.1-.5.3-.2.6.3,1.2,0,2-.3.8-1,1-1.2,1.6,0,0,0,0,0,.1,0,.2.1.5.4.6s.2,0,.3,0"/>
  <path class="st0" d="M84.8,110.5c-.3,0-.6-.1-.8-.3-2.2-2.3-4.1-2.3-4.9-2.9-.3-.2-.4-.5-.4-.8,0-.6.4-1,1-1,0,0-1,.8-.5,1.4.2.3,1,.5,1.8-.5,1.2-1.4-.4-3.2-2.1-1.9,1.2-.8,3,0,2,1.6l-1-.9c-.8,0-1.5.5-1.5,1.3s.2.9.6,1.2c.9.6,2.4.6,4.3,2.3-8.1,10.4-20.4,17.5-34.3,18.7v-7.8c11.3-1.2,21.2-7.1,28.1-15.5,1.1-1.3,2.2-1.9,3.3-1.9s1.2.4,1.4,1.1c.5,1.7,2.4,3.2,3.7,4.1.3.2.5.5.5.9,0,.6-.5,1-1,1.1M47.9,117l-10.8-2.8h0c-1.5-.3-2.9-.7-4.3-1.2,0,0-.1,0-.2-.1h0c-.2-.2-.5-.3-.8-.3-.2,0-.3,0-.5,0-.3-.1-.5-.2-.8-.3-.3-.3-.7-.4-1-.5-1.1-.5-2.2-1.1-3.3-1.7,0-.1-.1-.3-.2-.4,0,0,.2-.1.3-.2,3.3,1.9,6.8,3.3,10.5,4.1h0l11.9,3.1c.5.1,1.3.3,2.1.4-.4,0-.9.2-1.3.2s-1,0-1.6-.2M47.7,122.1v-4.6s.4,0,.5.1v3.8c-.2.1-.4.4-.5.6M40.8,121.5v-5.7h.5v6.3c-.1-.3-.3-.5-.5-.6M48.2,128.9h0v.2c-.1,1.6-1.3,3-2.9,3.4-.2,0-.4,0-.5,0,0,0,0,0,0,.1,0,.2-.2.4-.4.4s-.4-.2-.4-.4,0,0,0-.1c-.2,0-.4,0-.5-.1-1.5-.4-2.6-1.7-2.7-3.3,0,0,0-.1,0-.2h0v-.2h0v-6.4c.1.1.2.2.3.4,0,.2.1.3.1.5s0,.3-.1.5c0,0,0,.1,0,.1,0,0,0,.1,0,.1,0,0,.1,0,.1,0,0,0,0,0,0-.1h0c.1-.2.4-.6,1-.6.4,0,.5.2.6.6,0,.4-.2.7-.5.8,0,0-.2.1-.3.2,0-.2,0-.4,0-.6s0-.2,0-.2c0,0,0,0-.1,0,0,0-.8.4-.8,1.5h0c0,.5,0,1.1,0,1.1,0,3.4,3.1,2.3,3.1-.8s0-.1,0-.1c0,0-.1,0-.1,0,0,0,0,.2-.2.5-.1.2-.3.4-.5.4s-.4,0-.4-.2,0-.3,0-.4c0-.5.3-1.1.7-1.5.2-.2.4-.4.6-.6s.3-.2.3-.2c0,0,.2,0,.3.2.5.4,1.3,1.4,1.3,2.1,0,.1,0,.3,0,.4,0,.1-.2.2-.4.2s-.4-.2-.5-.4c-.1-.2-.2-.5-.2-.5,0,0,0,0-.1,0,0,0,0,0,0,.1,0,3.1,3.1,4.3,3.1.8s0-.7,0-1.1h0c0-1.1-.8-1.5-.8-1.5,0,0-.1,0-.1,0,0,0,0,.2,0,.2,0,.2,0,.4,0,.6,0,0-.2-.1-.3-.2-.2-.2-.5-.5-.5-.8,0-.4.2-.6.6-.6.4,0,.7.2.8.3s.1.2.2.2h0s0,0,0,.1c0,0,0,0,.1,0,0,0,0,0,0-.1,0,0,0,0,0-.1,0-.2-.1-.4-.1-.5s0-.4.1-.5c0-.2.2-.3.3-.4h0s0,.8,0,.8v1.4h0v4.2h0v.2h0c0,0,0,0,0,0ZM35.5,115.6c0,.1,0,.3-.2.4-.2.3-.7.5-1.5.4-.2,0-.4-.1-.5-.3-.3-.2-.6-.7-.8-1.1-.2-.4-.4-.9-.8-1.1-.7-.5-.9.3-.9.3,0,0,.2,0,.3,0h0c0,0,.2,0,.2.1,0,0,0,0,0,0,0,.1.1.2.1.4,0,0,0,.1,0,.2-.1.1-.3.2-.5.2-.2,0-.4-.1-.5-.2-.3-.2-.3-.7-.3-1.1,0-.1,0-.3.2-.4.2-.3.7-.5,1.5-.4.2,0,.4.1.5.2.3.3.6.7.8,1.1.2.4.4.9.8,1.1.7.5.9-.3.9-.3,0,0-.2,0-.3,0h0c0,0-.2,0-.2-.1,0,0,0,0,0,0,0,0-.1-.2-.1-.4,0,0,0-.1,0-.2.1-.1.3-.2.5-.2.2,0,.4.1.5.2.3.2.3.7.3,1.1M30.1,113.1c-.2.2-.2.4-.3.6,0,.3,0,.6,0,.9-.2.1-.4.2-.6.2-.3,0-.5-.1-.6-.3,0,0,0-.1-.1-.2,0,0,.2-.2.2-.2.3-.3.4-.7.4-1.1,0,0,0-.2,0-.3,0-.2,0-.4-.1-.6.1,0,.2,0,.4,0,.3,0,.7,0,1,.6-.2.1-.4.2-.5.4M27.5,114.3c0,0-.2,0-.3,0-.4,0-.8-.4-.8-.8h0c0-.4.4-.7.7-.7h0c.3,0,.5.2.8.5,0-.4-.4-.9-1.1-.9-.9,0-1.7.5-2.5.5,0,0-.2,0-.2,0-.9-.1-1.6-.8-1.6-2s.2-1,.6-1.5c.4-.5.9-.9,1.3-1.7.4-.8.5-1.6.5-2v-.2c.3,0,.8-.3,1.3-1.1.2-.4.3-.7.3-1.1,0-.3,0-.7.3-1,.4-.6.9-.8,1.5-.8s.8.1,1.1.3c.5.3.8.9,1.2,1.5.4.6,1.1,1.1,2,.7h0c0,0-.2,0-.2,0-.3,0-.5,0-.7-.2-.2-.1-.3-.4-.3-.6s0-.3.1-.4c0-.1.2-.2.4-.3.4.3.9.5,1.3.7,0,.2.1.3.1.5,0,.3-.1.6-.3.9-.2.3-.5.6-1,.6s-.5,0-.8-.3c-.6-.4-.9-.8-1.2-1.1s-.5-.8-1.1-1.1h0c-.2-.1-.4-.2-.6-.2-.4,0-.7.2-.9.5-.1.2-.2.4-.2.6,0,.4.2.7.5.9.3.2.8,0,.8-.3,0,0-.2,0-.2,0-.1,0-.3,0-.4-.1-.2-.1-.3-.3-.3-.6s0-.3.1-.4c.1-.2.4-.3.6-.3s.3,0,.4.1c.4.3.6.6.9.9,0,.1-.1.4-.3.6-.1.2-.3.3-.5.4q-.1,0,0,0c0,0-.2,0-.2,0,0,0-.2,0-.2,0h0s0,0,0,0t0,0s0,0,0,0h0s0,0,0,.1c-.2,0-.3.1-.5.2,0,0,.2,0,.3,0h0c0,.1,0,.3,0,.4,0,.1-.1.2-.2.4v.2c-.9-.2-1.6-.3-1.6-.3h-.4s.2.3.2.3c0,0,.5.6,1.1,1.2h0c0,0,0,.1-.1.3,0,.2-.2.3-.3.5,0,0-.1.1-.2.2,0,0,0,0,0,0,0,0-.1.1-.2.2-.2.2-.4.4-.6.5,0,0,0,0-.1,0-.1-.1-.3-.2-.4-.3.2.5.6.8.6,1.7s0,.4-.1.5c0,0,0,0,0,.1-.3,0-.6.2-1,.2s-.2,0-.3,0c-.3,0-.6-.3-.6-.7h0c0-.4.3-.7.7-.7h0c.2,0,.4.2.5.3.2-.3,0-.7-.4-.8,0,0,0,0-.1,0-.6,0-1,.4-1.1,1,0,0,0,0,0,.2,0,.6.4,1,1,1.1.1,0,.3,0,.4,0,.8,0,1.3-.3,2.2-.3s.4,0,.6,0c.5,0,.8.3,1,.5.2.2.2.5.2.7,0,0,0,.1,0,.2,0,.3-.1.6-.3.8-.2.2-.5.4-1,.4M18.9,104.3c-6.6-6.6-10.6-15.6-10.6-25.6s3.9-18.7,10.2-25.2c.1.1.3.3.4.4-6.5,6.7-10.1,15.5-10.1,24.8s3.7,18.5,10.4,25.2c1.5,1.5,3,2.8,4.7,4-.1.2-.2.3-.3.5-1.7-1.2-3.3-2.5-4.8-4M16.1,51.3c.6.5,1.1.9,1.9,1.7-.3.3-.6.6-.9.9-.5-1.1-.8-1.8-1-2.6M19,59.7l-.3.4h0l-1.7-1.2-.5.7h0l-.4-.3h0s1.3-1.8,1.3-1.8h0l.4.3h0s-.5.7-.5.7l1.7,1.2h0M20.5,59.9v.9c-3.7,5-5.9,11.1-5.9,17.8v.7c-.1.3-.3.6-.5,1.1,0,0,0,0,0,.2,0-.6,0-1.2,0-1.9,0-7.1,2.4-13.6,6.5-18.7M20.5,84.8h0c0,.3,0,.4-.2.5h0c-.1,0-.3,0-.4,0s-.3,0-.4,0h0c0-.2.1-.3.1-.5,0-.5-.2-1-.5-1.7-.2-.3-.2-.6-.2-.8,0-.4.2-.7.6-1.4.2-.5.4-1.2.2-1.8,0,0,.4,0,.6,0h0c0,.1,0,.3,0,.4.1,1.2-.8,2.1-.4,3.4.2.5.5.9.5,1.6h0M15.2,93.7c.6-.3,1.4-.2,1.8.5s.1,1.5-.5,1.8c-.7.4-1.5,0-1.8-.5s-.2-1.4.5-1.8M11.5,87.5l2.4-.7h0v.5c.1,0,.1,0,.1,0l-2.4.7h0v-.5c-.1,0-.1,0-.1,0M12.2,78.2l-.8.9-.7-1,.8-.9.7,1ZM15.4,79.1c0,0,.1,0,.6,0,0,0-.2,1.2-.9,2-.6.6-.7,1.3-.7,1.8s.3,1.3.2,2c0,0,0,.2,0,.2,0,.1-.1.3-.2.4,0,0,0,0,0,0s0,0,0,0c0,0,0,0,0,0,0,0,0,0-.1,0,0,0-.1,0-.2,0h0c-.1,0-.3,0-.5-.1,0,0-.2,0-.2-.1,0,0,0,0,0,0,0,0,0,0,.1-.1,0,0,.2-.3.2-.5h0c.1-.4.2-.9.1-1.6,0-.4,0-.8.1-1.2.2-.6.4-.8.6-1.2.2-.3.5-.6.9-1.7M16.1,75.9c-.1.7-.2,1.2-.3,1.5-.2,0-.4,0-.5.2,0-2.4.5-4.7,1.1-6.9,0,.4,0,.8,0,1.2,0,1.5-.2,2.9-.3,3.9M20.5,81.1s0,0,0,0h0v2.6c0-.2-.1-.3-.1-.4h0c-.1-.3-.2-.7-.2-.9s0-.2,0-.3c0,0,0,0,0-.1,0,0,0-.1,0-.2,0,0,0-.1,0-.2s0-.1,0-.2c0,0,0-.1,0-.2M19.4,78.2s0,0,0-.1h0s0,0,0,0h.6c0,0,.1,0,.2,0h0c0,0,.1,0,.2,0v.7c-.2,0-.4,0-.5,0,0,0-.1,0-.2,0-.2-.2-.3-.3-.4-.5M19.2,78.8c-.2,0-.4,0-.6,0,0,0-.1,0-.2,0,0,0,0,0,0,0-.1-.1-.3-.3-.3-.5,0,0,0-.1,0-.2h0s0,0,0,0c0,0,.3-.1.5-.1s.4,0,.6.2c0,.1.2.5.4.7-.1,0-.3,0-.4,0M17.8,82.5c0,.5.1,1.2.3,1.6.2.4.4,1,.3,1.4-.1.3-.6.1-.6.1,0,0-.1-1.1-.2-1.8,0-.7.2-1.3.2-1.3M16.4,77.9h0c.1,0,.4-.1.7-.1s.4,0,.6.2c0,.1.2.5.4.7-.2,0-.3,0-.5,0-.2,0-.4,0-.6-.1,0,0-.1,0-.2,0,0,0,0,0,0,0h0c-.1-.1-.3-.3-.3-.4,0,0,0-.2-.1-.2M16.5,78.6c-.3,0-.5,0-.7,0-.3,0-.4,0-.5-.2,0,0,0-.2,0-.3h0s0-.2.2-.2c.1,0,.3-.2.4-.2s.2,0,.2,0h0c0,.1.2.4.4.7M15.7,85.1c0,.7-.2.8-.2.8-.1,0-.3.1-.4.1s-.2,0-.3,0c0,0-.1,0-.2,0,.7-.5.2-2.6.2-2.9,0-.5.1-1,.6-1.6.7-.9.9-1.8.9-2.2,0,0,.4.1.9,0,0,.3,0,1.1-1.1,2.4h0c-.5.7-.6.8-.4,3.6M16.5,83.1c.1.8.2,2.7.2,2.7-.3.4-.8,0-.8,0,0,0,.3-.5,0-2.5-.2-1.2.4-1.7.4-1.7,1-1.1,1.1-2.4,1.1-2.4.5,0,.7,0,.7,0,0,.4-.5,1.7-.8,2.1-.3.4-1.1,1-.9,1.8M17.5,85.5c0,.3-.5.3-.5.3,0,0-.1-1.8-.2-2.7,0-.7.3-.9.6-1.3,1-1.2,1-2.6,1-2.6,0,0,.3,0,.3,0,0,1.3-.7,2.4-1.2,3.2-.5.8,0,2.7,0,3.1M18.8,83.4c.3.6.5,1.2.5,1.6s0,.3,0,.5c0,0,0,0,0,0h0c-.1,0-.3,0-.3,0s-.2,0-.2,0c0,0,0,0,0,0,0-.1,0-.3,0-.5,0-.3,0-.7-.3-1.1-.2-.4-.3-.8-.3-1.2,0-.8,1-1.8.9-3.4,0,0,.2,0,.4,0,0,0,.3.7-.2,1.7-.3.7-.6,1.1-.6,1.6s0,.5.2.9M16.7,69.7h0c0-.2.1-.4.2-.5,0,0,0-.1,0-.2,0-.1.1-.3.2-.4,0,0,0-.1,0-.2,0-.1.1-.3.2-.4,0,0,0,0,0-.1,0-.2.2-.3.3-.5,0,0,0,0,0,0,0-.1.2-.3.3-.4,0,0,0-.1,0-.2,0-.1.1-.2.2-.3,0,0,0-.1.1-.2,0-.1.2-.2.2-.4,0,0,0,0,0-.1.1-.2.2-.3.3-.4,0,0,0,0,0-.1,0-.1.2-.2.2-.3,0,0,0,0,.1-.1,0,0,.1-.2.2-.3,0,0,0,0,0-.1,0,0,.1-.2.2-.3,0,0,0,0,0,0,0-.1.2-.2.2-.3,0,0,0,0,0-.1,0,0,0,0,0-.1v14.1c-.2,0-.3,0-.5,0-.3,0-.6,0-.7.1-.3-.2-.6-.2-.8-.2s-.5,0-.6.1c-.3-.2-.6-.2-.8-.2s-.6,0-.8.1c0,0,0,0,0,0,.1-.6.6-2.9.6-5.5s0-1.5-.2-2.3M14.8,61.6l.2-.4h0l2.2,1.3h0s-.2.4-.2.4h0l-2.2-1.3h0M14.9,64c.6.3,1,1,.6,1.7-.3.7-1.1,1-1.7.7-.8-.3-.9-1.1-.7-1.8.3-.6,1-1,1.8-.7M12.3,69.1c.2,0,.3,0,.4-.3.3-.4.6-.6,1-.4.4.1.7.5.5,1-.1.5-.5.6-.8.7h0v-.4c-.1,0-.1,0-.1,0,.3,0,.4-.3.5-.5,0-.2,0-.3-.2-.4-.2,0-.3,0-.5.3-.3.4-.6.6-1,.5-.4-.1-.6-.5-.5-.9.1-.4.4-.6.7-.7h0l.2.4h0c-.2,0-.3.2-.4.4,0,.2,0,.3.2.4M12.6,90.9h0l-.2-.4h0s2.3-1,2.3-1h0l.2.4h0l-1.2,1.9,1.6-.7h0l.2.4h0s-2.3,1-2.3,1h0l-.2-.5h0l1.2-1.8-1.6.7h0ZM17.8,98.2l-.8.6h0l-.3-.4h0s2-1.5,2-1.5h0l.3.4h0s-.8.6-.8.6l.7.9.8-.6h0l.3.4h0s-2,1.5-2,1.5h0l-.3-.4h0s.8-.7.8-.7l-.7-.9h0ZM24.2,104.7h-1.2s-.3-1.3-.3-1.3h1.2s.3,1.3.3,1.3h0ZM23,100.2c-3.8-3.8-6.6-8.6-8-13.9h0c0,0,.1,0,.2,0,0,0,.2,0,.3,0,1.7,6.5,5.6,12.1,10.8,16.1,0,.2-.1.4-.1.6-1.2-.9-2.3-1.8-3.3-2.9M25.5,97.3h.1c1.3,1.5,2.9,2.9,4.7,4.1.4.3.8.5,1.2.8-.1,0-.2.2-.3.3,0,.2-.2.3-.2.5-.4-.5-.7-1.1-1.3-1.5-.4-.2-.8-.4-1.3-.4s-1.3.3-1.7.8c-1-.8-2-1.6-2.9-2.5-3.5-3.5-6.2-8-7.5-13,0,0,0,0,.1,0,0,0,.2,0,.3,0,.2,0,.6,0,.8-.4,0,0,.2,0,.3,0s.4,0,.6-.1c0,0,.2,0,.3,0s.3,0,.5,0c.1,0,.3,0,.6,0s.3,0,.5,0c0,0,.1.1.2.2.2,4.3,1.8,8.2,4.9,11.3M21.4,54.5h46.2v29.5h0s-.7-.5-.7-.5l-.2-.2-.2-.2-22-15.7-22,16-.6.4h-.2c0,.1,0,.2,0,.2h-.2c0,.1,0,.2,0,.2v-29.8h0ZM40.3,49.8h0c1.4-.2,2.8-.3,4.3-.3s2.8.1,4.2.3c0,0,0,0,0,0,.4,1.5.9,2.7,1.3,3.7h-11.1c.5-1,.9-2.3,1.3-3.8M31.3,53.6h-1.9c.9-.6,1.9-1.1,2.9-1.5,0,0,0,.1,0,.2-.2.4-.5.8-.8,1.3M37.7,52.1c-.4.5-.8,1.1-1.1,1.5h-.2c.2-.7.4-1.8,0-1.3-.2.3-.8,1-1,1.3h-.1v-.5c0-.4-.4.1-.7.5h-2.4c.4-.6.7-1.2,1-1.8,0,0,0-.1,0-.2,0,0,0,0,0,0,2-.8,4.1-1.4,6.3-1.8,0,0,0,0,0,0-.4,1.3-.8,2.6-1.4,3.6h-.5c.3-.7.8-2.3.2-1.5M52.2,53.6h-.2c-.3-.5-.8-1.2-1-1.4-.3-.3.3,1,.5,1.4h-.6s0,0,0,0c0,0,0,0,0,0-.6-1.1-1-2.3-1.4-3.6,0,0,0,0,0,0,2.2.4,4.3,1,6.4,1.9,0,0,0,0,0,0,0,0,0,0,0,.1.3.6.6,1.1,1,1.7h-2.6c-.2-.3-.5-.6-.6-.7-.2-.1-.2.3-.2.7h-.3c-.2-.3-.5-.7-.8-.9-.3-.3-.2.4-.1.9M59.2,53.6h-1.6c-.3-.5-.6-.9-.8-1.3,0,0,0,0,0-.1h.1c.9.5,1.7.9,2.5,1.4h-.1M33.8,50.2c3.3-1.2,6.9-1.9,10.5-1.9s3.1.1,4.7.4c2.1.3,4.1.9,6,1.6.1,0,.2,0,.3.1,2.1.8,4.2,1.9,6.1,3.3h-1c-1.6-1-3.2-1.9-4.9-2.6-.1,0-.2,0-.3-.1-2-.8-4.1-1.4-6.2-1.7-1.6-.3-3.2-.4-4.8-.4-3.7,0-7.4.7-10.8,2,0,0,0,0,0,0,0,0,0,0,0,0-1.9.7-3.7,1.6-5.4,2.8h-1c2.1-1.4,4.3-2.6,6.6-3.4M29.5,48.4l1.2.3-.6,1.1-1.2-.3.6-1.1h0ZM41.3,44.5c.7,0,1.4.5,1.4,1.2,0,.2,0,.5-.1.6,0,.1-.1.2-.2.3.1.1.2.2.3.2,0,0,.1,0,.1,0,0,0,0,0,0,0v.5s0,0-.2,0c-.3,0-.5,0-.7-.3-.1,0-.3.1-.5.1-.6,0-1.1-.3-1.3-.8,0-.1-.1-.3-.1-.4,0-.8.5-1.4,1.2-1.4M44.8,44.4s0,0,0,0h.5s0,0,0,0v1.5c0,.2,0,.3,0,.4,0,.2.2.2.4.2.2,0,.4,0,.5-.2,0,0,0-.2,0-.3v-1.6c0,0,0,0,0,0h.5s0,0,0,0v1.5c0,.1,0,.2-.1.3-.1.4-.4.7-1,.7-.4,0-.8-.2-.9-.7,0-.1,0-.3,0-.5v-1.5h0ZM48.9,46.4l.2-1.6s0,0,0,0h.5c0,0,0,0,0,0l-.2,1.5-.2,1s0,0,0,0h-.5c0,0,0,0,0,0v-.9h.2ZM59.5,48.5l.6,1.1-1.2.3-.6-1.1s1.2-.3,1.2-.3ZM68.5,86c0,0,.2-.1.2-.2.2,0,.3,0,.5,0,.3,0,.5,0,.6,0,.2,0,.3,0,.5,0s.3,0,.3,0c.2.1.4.1.6.1s.3,0,.3,0c.3.3.6.4.8.4s.2,0,.3,0c0,0,0,0,.1,0-1.4,5-4,9.4-7.5,13-2.1,2.1-4.6,3.9-7.3,5.3-.4-.3-1.5-.9-3.1-1,2.9-1.5,6.2-3.6,8.8-6.4,3.6-3.8,4.6-7.9,4.8-10.6v-.7s0,0,0,0ZM68.5,81.8c0,0,.5-.7.6-1.3,0-.7-.1-1.2-.1-1.2h.5c0-.1.2,1.3-.1,1.8-.2.4-.8,1.4-.9,2.5v-1.8h0ZM68.5,59.9c4,5.2,6.5,11.7,6.5,18.7s0,1.3,0,1.9c0,0,0-.1,0-.2-.2-.5-.3-.8-.5-1.1v-.7c0-6.7-2.2-12.8-5.9-17.8v-.9h0ZM70.5,53.4c6.3,6.5,10.2,15.4,10.2,25.2s-4.1,19.1-10.6,25.6c-3.5,3.5-7.6,6.2-12.2,8.1l-.9-.2c4.7-1.8,9.1-4.5,12.8-8.2,6.7-6.7,10.4-15.7,10.4-25.2s-3.6-18.1-10.1-24.8c.1-.1.3-.3.4-.4M72.8,51.3c-.2.8-.4,1.5-.9,2.6-.3-.3-.5-.6-.8-.9.8-.8,1.2-1.2,1.8-1.6M33.8,103.4c.4.2.7.4,1.1.5-.3.2-.5.4-.6.6-.1.2-.2.4-.2.6,0,.2,0,.4.1.6-.1,0-.3,0-.4,0-.4,0-.7-.2-.8-.4,0,0-.1-.1-.2-.2.3-.2.5-.4.6-.6.2-.3.3-.7.3-1.1,0,0,0-.1,0-.2M40.2,107c.1-.2.2-.4.2-.6s0-.1,0-.2c.4.1.8.3,1.2.4-.3.4-.4.8-.5,1.1-.4,0-.8-.1-1.2-.2h0c.2-.1.3-.3.4-.5M38.6,105.9c-.4,0-.9.2-1.3.4-.5.2-.9.4-1.3.4-.2,0-.4,0-.6-.2-.7-.4-.9-.9-.9-1.3s0-.3.1-.4c.2-.3.5-.5.8-.6.3.1.6.3.9.4,0,0,0,.2,0,.3s0,.2,0,.2c0,.1-.2.2-.3.2h0c-.1,0-.2,0-.3,0h0c-.1,0-.2-.2-.2-.3,0,0-.4.8.5.8s.9-.2,1.3-.4c.1,0,.3-.1.4-.2.8.3,1.6.6,2.3.9,0,.1,0,.3,0,.4,0,.2,0,.3-.1.4-.2.3-.5.6-.9.6-.2,0-.3,0-.5-.2-.2,0-.3-.3-.3-.5,0,0,0-.1,0-.2,0-.1.2-.2.3-.2h0c.1,0,.2,0,.3,0h0c.1,0,.2.2.2.3,0,0,.4-.8-.5-.8M42.7,106.9c-.3.5-.5,1-.7,1.3h-.3c0,0-.2-.1-.2-.1,0-.3.3-.8.6-1.3.2,0,.4.1.5.2M56.8,105.1c-.4-.2-1.4-.6-3.1-.6s-.9,0-1.4.2c.6-.2,1.2-.5,1.8-.8,1.2,0,2.1.3,2.8.6.2.1.4.2.6.3-.2.1-.5.2-.7.3M48.3,109.9l-.6-.2c0-.9.6-2.3,1.5-3.5.1-.1.2-.3.4-.4.7-.3,1.4-.5,2.1-.8-.7.4-1.4.9-1.9,1.5-.9,1-1.4,2.2-1.5,3.3M59.6,108.7h0s0,0,0,0h0s0,.1,0,.2c0,0,0,.1,0,.1,0,.2-.2.4-.4.5-.2,0-.3.2-.5.3,0-.2-.2-.3-.2-.5,0,0,0-.2,0-.3,0-.2,0-.3.2-.4s.1-.1,0-.2c0,0-.1-.1-.2,0s0,0-.1,0c-.2,0-.4-.2-.5-.4,0-.2-.2-.3-.3-.5.2,0,.3-.2.5-.3,0,0,.2,0,.3,0,.2,0,.3,0,.4.2,0,0,0,0,0,0h0s0,0,.1,0h0s0,0,0,0h0s0,0,0,0h0s0,0,0-.1h0s0,0,0-.1c0-.2.2-.4.4-.5.2,0,.3-.2.5-.2,0,.2.2.3.2.5,0,0,0,.2,0,.3,0,.2,0,.3-.2.4,0,0,0,0,0,0h0s0,.1,0,.2c0,0,0,0,0,0h0s.1,0,.2,0h0s0,0,.1,0c.2,0,.4.2.5.3s.2.3.3.5c-.2,0-.3.2-.5.2,0,0-.2,0-.3,0-.2,0-.3,0-.4-.2h0s0,0,0,0h0s0,0,0,0h0s0,0-.1,0h0ZM65.4,103.9l-.2,1.2h-1.2c0,0,.2-1.2.2-1.2h1.2ZM73.4,86.4c.2,0,.3,0,.3,0,0,0,.1,0,.2,0h0c-1.4,5.3-4.2,10.1-8,13.9s-10.2,7.5-16.7,8.6c0-.2.2-.4.3-.6,11.5-2,20.8-10.6,23.8-21.7M70,83.2c.9,1.3.4,2.2.4,2.2-.4.2-.6-.1-.6-.1-.2-1.3.3-2.1.3-2.1M69.3,78.3c0,0,0-.1-.1-.2h0s0,0,0,0c0,0,.3-.2.6-.2s.3,0,.5.1c0,.1.2.4.5.7-.2,0-.4,0-.6,0s-.3,0-.5,0c0,0,0,0-.1,0h0c-.1-.1-.3-.3-.4-.4M73.2,77.5c0-.2,0-.3,0-.3,0-.3-.2-.7-.2-1.3-.2-1-.3-2.4-.3-3.9s0-.8,0-1.2c.6,2.1.9,4.3,1.1,6.6,0,0,0,.2,0,.4-.2-.1-.3-.2-.5-.2M75.5,86s-.8.2-.9-.5,0-1.9-.3-3c-.4-1.1-1-1.5-1.2-3.5h.6s1,1.5,1.3,3.4c.3,1.9.2,3.4.5,3.6M77.4,75.4l-.9-.9.6-1.1.9.9-.6,1.1ZM77.1,83.9l-.6-1.1.9-.9.6,1.1-.9.9ZM75.5,89.2l.2-.6-.9-.3s0,0,0,0l.2-.5h0l2.4.8h0s-.3,1-.3,1c-.2.4-.6.6-1,.5-.6-.2-.6-.6-.5-.9M72.4,78.6c-.3.1-.6.1-.9.1s-.2,0-.3,0c0,0,0,0,0,0-.2-.1-.3-.3-.4-.5,0,0,0,0,0-.1h0s0,0,0,0c.1,0,.4-.2.7-.2s.4,0,.5.1c0,.1.3.3.5.5M72.2,78h0s0,0,0,0c0,0,.3-.2.6-.2s.4,0,.7.2h0c0,0,.1.2.1.2,0,0,0,0-.2.2-.2.1-.4.2-.5.2s-.2,0-.3,0c-.2-.1-.4-.4-.5-.6M73.5,83.3c0-1-.7-1.8-.9-2.4s0-1.8,0-1.8c0,0,.4,0,.4,0,0,1.2.4,2.1.6,2.6.2.5.8,1.2.8,2.4,0,1.3,0,1.8,0,1.8-.2.2-.7,0-.7,0-.2-.2,0-1.6-.1-2.6M67.9,102.3l-.6.6h0l-.3-.3h0s.6-.6.6-.6l-.4-.4-.9.9h0l-.3-.3h0s1.3-1.2,1.3-1.2h0l1.7,1.8h0s-1.2,1.2-1.2,1.2h0l-.3-.3h0s.8-.8.8-.8c0,0-.4-.4-.4-.4ZM70.8,99.7c-.1,0-.3,0-.5.1-.4.3-.8.3-1.1,0-.3-.3-.4-.7,0-1.1.3-.4.7-.4,1-.4,0,0,0,0,0,0v.4s0,0,0,0c-.3,0-.5,0-.6.3-.1.2,0,.3,0,.4.1,0,.3.1.6,0,.4-.3.8-.3,1.1,0,.3.3.3.7,0,1-.3.3-.6.4-.9.4h0v-.4s0,0,0,0c.2,0,.4,0,.5-.2.1-.1,0-.3,0-.4M73.2,97.6h0s-.2.4-.2.4h0l-2.1-1.4h0s.2-.4.2-.4h2.2c0-.1-1.5-1.1-1.5-1.1h0s.2-.4.2-.4h0l2.1,1.4h0s-.3.4-.3.4h-2.1c0,0,1.5,1,1.5,1h0ZM74.8,92.5l-.4.7h0l-.4-.2h0s.3-.8.3-.8l-.5-.2-.5,1.2h0l-.4-.2h0s.8-1.6.8-1.6h0l2.3,1.1h0s-.7,1.5-.7,1.5h0l-.4-.2h0s.5-1.1.5-1.1l-.5-.3h0ZM78.8,79.3h0v.5s0,0,0,0l-1.3-1h-1.2s0,0,0,0v-.5s0,0,0,0h1.1l1.4-1h0v.6h0l-1,.7.9.7h0ZM74.5,67.9l2.4-.8h0v.5c.1,0,.1,0,.1,0l-2,.6.4,1.2h0s-.4.1-.4.1h0l-.5-1.7h0M71.2,61.2s0,0,0,0l.9-1.7-1.5.9h0l-.2-.4h0s2.1-1.4,2.1-1.4h0l.3.5h0s-.9,1.6-.9,1.6l1.7-.2h0l.3.4h0s-2.1,1.4-2.1,1.4h0l-.2-.4h0s1.5-1,1.5-1l-1.9.2h0ZM73.8,64.4h-.8s0,0,0,0l-.2-.4h0s2.7,0,2.7,0h0l.2.3h0s-1.8,2-1.8,2h0l-.2-.5h0s.5-.5.5-.5l-.4-.8h0ZM72.7,77.4c-.3,0-.6.1-.7.2-.2-.1-.5-.1-.7-.1-.4,0-.7.1-.9.2-.2-.1-.5-.2-.7-.2-.3,0-.6.1-.8.2,0,0-.2,0-.3,0h0c0,0-.2,0-.3,0v-14h0s0,0,.1.1c0,0,0,0,.1.1,0,0,.1.2.2.3,0,0,0,0,0,.1,0,0,.1.2.2.2,0,0,0,0,.1.1,0,0,.1.2.2.3,0,0,0,0,.1.1,0,.1.2.2.3.4,0,0,0,0,0,0,0,.1.2.3.3.4,0,0,0,0,0,.1,0,.1.1.2.2.3s0,.1.1.2c0,.1.1.2.2.3,0,0,0,.1,0,.2,0,.2.2.3.3.5h0c0,.2.2.3.3.5,0,0,0,.1,0,.2,0,.1.1.2.2.4,0,0,0,.1,0,.2,0,.1.1.3.2.4,0,0,0,.1,0,.2,0,.2.2.4.2.5h0c-.1.8-.2,1.5-.2,2.3,0,2.5.5,4.7.6,5.5M68.8,80c0,0,0,.2,0,.3,0,0,0,.2,0,.2,0,0,0,0,0,0,0,0,0,.2,0,.3,0,0,0,0,0,0,0,0,0,.2-.1.3,0,0,0,0,0,.1h0v-2.1c0,0,.1,0,.2,0,0,0,0,0,0,.1,0,.1,0,.3,0,.6M68.8,78.9c0,0-.2,0-.3,0v-.9h0s0,0,0,0c0,0,0,0,0,0,0,0,.2,0,.2,0,0,.1.2.4.5.7-.2,0-.5.1-.6.1M69.6,85.4s-.2,0-.5,0-.3,0-.4,0c0-.2,0-.5,0-.7,0-.9.3-1.8.7-2.8,0-.1,0-.2.1-.3,0,.5.3,1.2.3,1.2-.3.6-.6,1.8-.2,2.7M70.6,83.7c-.6-1.1-.9-2.1-.8-2.7s0-1.6,0-1.8c0,0,.5.1.7,0,0,0-.2,1.1-.1,1.6,0,.5.2,1.3.8,2.3.6,1,.5,1.7.3,2.5,0,0-.5.1-.6-.1,0,0,.5-.7-.1-1.8M71.6,83.6c-.4-.9-1-2-1-2.9,0-1.2.1-1.4.1-1.4h.6s-.5,1.4,0,2.7c.6,1.3.9,1.7.9,2.4s0,1.5,0,1.5c0,0-.4.1-.6-.3,0,0,.4-1.1,0-2M72.5,83.4c-.3-.8-.9-1.5-1-2.5-.1-1,0-1.8,0-1.8h.6c0,0-.2.9,0,1.6.2.7.9,1.9,1,2.7s.1,2.5.1,2.5c0,0-.4.2-.7,0,0,0,.2-1.7-.1-2.5M23.1,91l-.5.4c-.4-1-.7-1.9-.9-3l.9-.6,21.9-16,21.9,15.7.8.6h0c-.2.9-.4,2-.9,3.1l-.5-.4-21.4-15.3-21.4,15.5h0ZM24.6,94.4l20-14.5,20,14.3.2.2c-.5.7-1,1.4-1.7,2.1,0,0-.1.1-.2.2-3.4,3.7-7.9,6.1-11.2,7.4-1.7.7-3.5,1.3-5.3,1.9-.6.2-1.1.3-1.6.4-.2,0-.3,0-.4,0-.2,0-.4-.1-.8-.2-2.2-.6-7.9-2.2-12.9-5.6-1.8-1.2-3.4-2.5-4.7-3.9l-.2-.2-.3-.3h0c-.5-.5-.9-1-1.3-1.6l.2-.2h0ZM26.8,106.6h0c.4,0,.9.1,1.5.3.5.2,1,.4,1.3.6.3.3.5.5.6.9-.2,0-.3.1-.5.1-.6,0-1.5-.6-2.1-1.1-.3-.3-.6-.6-.8-.8M31.5,108.5s0,0,0,0c.1,0,.4.3.4.6,0,0,0,.1,0,.2,0,.2-.2.2-.4.2s-.2,0-.3,0c0,0-.1,0-.1,0,0,0-.2,0-.2,0,0,0,0,.2,0,.2.2.2.3.5.3.7s0,.5-.2.6c0,0,0,.1,0,.2,0,0,0,0,0,0-.3-.2-.9-.5-.9-1.2h0c0-.2,0-.2-.1-.3h0c0,0-.1,0-.1,0,0,0,0,0,0,0,0,.1-.3.3-.5.3,0,0-.1,0-.2,0-.2-.1-.2-.3-.3-.5,0,0,0-.2,0-.3,0,0,0-.1,0-.1,0,0,0-.2,0-.2,0,0-.2,0-.2,0-.2.2-.5.3-.7.3s-.5,0-.7-.2c0,0-.2,0-.2,0,0,0,0,0,0,0,0,0,0,0,0-.1h0s0,0,0-.1c0,0,0,0,0,0,0,0,0,0,0-.1h0c0,0,.1-.2.2-.2h0s0,0,.1,0h0s0,0,.2,0,.1,0,.2,0c0,0,.2,0,.2,0h.1s0,0,0,0c.5.3,1,.6,1.5.6,0,0,.1,0,.2,0h0c.2,0,.3,0,.4-.2,0,0,.1,0,.1,0,.3,0,.5,0,.5,0,0,0-.2-.1-.4-.4h0c0-.3,0-.5-.2-.6-.1-.2-.3-.3-.5-.5-.3-.2-.7-.4-1.1-.6,0-.1-.1-.2-.2-.3,0-.1,0-.2,0-.3,0-.2,0-.5.2-.6,0,0,0-.1,0-.2,0,0,0,0,0,0,.3.2.9.5.9,1.2h0c0,.2,0,.2.1.3,0,0,.2,0,.2,0,0,0,0,0,0,0,0-.1.3-.3.5-.3,0,0,.1,0,.2,0,.2.1.2.3.3.5,0,0,0,.2,0,.3,0,0,0,.1,0,.1,0,0,0,.2,0,.2,0,0,.1,0,.2,0,.2-.2.5-.3.7-.3s.5,0,.7.2c0,0,.1,0,.2,0,0,0,0,0,0,0-.1.3-.5.9-1.1.9h-.1c0,0-.2,0-.2.1s0,.2,0,.2M39.5,111s0,0,0,0c.2,0,.5.3.5.5,0,0,0,0,0,0,0,.1-.1.2-.2.2-.1,0-.3,0-.4,0h-.2c0,0-.1,0-.2.1,0,0,0,.1,0,.2.4.2.4.6.4.9s0,.3,0,.5c0,0,0,0,0,0,0,0,0,0,0,0-.2,0-.4-.1-.7-.3-.2-.2-.4-.4-.4-.7,0,0,0-.1-.1-.1h0c0,0-.1,0-.2.1,0,0,0,0,0,0,0,.2-.3.4-.5.4,0,0,0,0-.1,0-.2,0-.2-.1-.3-.2,0-.1,0-.3,0-.4h0c0-.2,0-.3,0-.3s-.1,0-.2,0c-.2.3-.6.4-.9.4s-.4,0-.5,0c0,0,0,0,0,0,0,0,0,0,0,0,0-.2.1-.4.3-.6.2-.2.4-.4.7-.4,0,0,.1,0,.1-.1,0,0,0-.1-.1-.2,0,0,0,0,0,0-.2,0-.5-.3-.4-.5,0,0,0,0,0,0,0-.1.1-.2.2-.2.1,0,.3,0,.4,0s.2,0,.2,0c0,0,.2,0,.2,0s0-.2,0-.2c-.4-.2-.4-.6-.4-.9s0-.3,0-.5c0,0,0,0,0,0,0,0,0,0,0,0,.2,0,.4.1.6.3.2.2.4.4.4.7,0,0,0,.1.1.1,0,0,.1,0,.2-.1,0,0,0,0,0,0,0-.2.3-.4.5-.4,0,0,0,0,.1,0,.2,0,.2.1.3.2,0,.1,0,.3,0,.4s0,.1,0,.1c0,0,0,.1,0,.2s.1,0,.2,0c.2-.3.6-.4.9-.4s.4,0,.5,0c0,0,0,0,0,0,0,0,0,0,0,0,0,.2-.1.4-.3.6-.2.2-.4.4-.7.4,0,0-.1,0-.1.1,0,0,0,.1.1.2M48.3,113.3s0,0,0,0c.2,0,.5.3.4.5,0,0,0,0,0,0,0,.1-.1.2-.2.2-.1,0-.3,0-.4,0s-.2,0-.2,0c0,0-.1,0-.2,0s0,.2,0,.2c.3.2.4.6.4.9s0,.3,0,.5c0,0,0,0,0,0,0,0,0,0,0,0-.2,0-.4-.1-.7-.3-.2-.2-.4-.4-.4-.7,0,0,0-.1-.1-.1h0c0,0-.1,0-.2.1,0,0,0,0,0,0,0,.2-.3.4-.5.4,0,0,0,0-.1,0-.2,0-.2-.1-.3-.2,0-.1,0-.3,0-.4h0c0-.2,0-.3,0-.3s-.1,0-.2,0c-.2.3-.6.4-.9.4s-.4,0-.5,0c0,0,0,0,0,0,0,0,0,0,0,0,0-.2.1-.4.3-.6.2-.2.4-.4.7-.4,0,0,.1,0,.1-.1,0,0,0-.1-.1-.2,0,0,0,0,0,0-.2,0-.5-.3-.4-.5,0,0,0,0,0,0,0-.1.1-.2.2-.2.1,0,.3,0,.4,0h.2c0,0,.1,0,.2,0s0-.1,0-.2c-.4-.2-.4-.6-.4-.9s0-.3,0-.5c0,0,0,0,0,0,0,0,0,0,0,0,.2,0,.4.1.7.3.2.2.4.4.4.7,0,0,0,.1.1.1,0,0,.1,0,.2-.1,0,0,0,0,0,0,0-.2.3-.4.5-.4,0,0,0,0,.1,0,.2,0,.2.1.3.2,0,.1,0,.3,0,.4h0c0,.2,0,.3,0,.3s.1,0,.2,0c.2-.3.6-.4.9-.4s.4,0,.5,0c0,0,0,0,0,0,0,0,0,0,0,0,0,.2-.1.4-.3.6-.2.2-.4.4-.7.4,0,0-.1,0-.1.1,0,0,0,.1.1.2M62.3,112.9c-.5.7-1.3,1.1-2.4,1.1s-.8,0-1.2-.2l-21.7-5.7h0c-2.7-.7-5.3-1.7-7.6-3.1.2-.1.3-.3.4-.4,2.3,1.3,4.7,2.3,7.2,2.9h0l21.2,5.5c.5.1,1,.2,1.4.2h0c.9,0,1.5-.3,2-.7.5-.4.7-1,.9-1.7.2-.1.4-.2.6-.3,0,.9-.3,1.7-.8,2.3M52.1,115.6l-.8-1,1.1-.5.8,1-1.1.5ZM40.1,128.6c-13.9-1.2-26.2-8.3-34.3-18.7,1.9-1.7,3.4-1.7,4.3-2.3.4-.3.6-.7.6-1.2,0-.8-.7-1.3-1.5-1.3l-1,.9c-1-1.6.8-2.4,2-1.6-1.7-1.3-3.4.5-2.1,1.9.8.9,1.5.8,1.8.5.5-.6-.5-1.4-.5-1.4.5,0,1,.5,1,1s-.2.7-.4.8c-.8.6-2.7.6-4.9,2.9-.2.2-.5.3-.8.3-.6,0-1-.5-1.1-1.1,0-.4.2-.7.5-.9,1.3-.9,3.2-2.4,3.7-4.1.2-.6.7-1.1,1.4-1.1,1.2,0,2.2.6,3.3,1.9,6.9,8.4,16.8,14.3,28.1,15.5v7.8h0ZM85.7,108.2c-1.3-.9-3.1-2.4-3.5-3.9-.2-.8-.9-1.4-1.8-1.4-1.3,0-2.5.7-3.7,2.1-6.8,8.3-16.6,14.1-27.8,15.3v-2.6c.2,0,.5,0,.7,0,1.5,0,2.8-.5,4.1-1.1.9-.4,2.7-1,4.2-1.5,1.5-.5,2.8-.9,2.8-.9h0c.8-.2,1.5-.6,1.9-1.2.5-.7.8-1.7.8-2.7,10.8-6.4,18-18.2,18-31.7s-1.8-13.1-5-18.6h0c0-.1.1-.2.2-.3,1.7-3.3,3.3-6.3,3.4-8.3,0-1.3-.6-2.5-1.8-3-1-.4-2-.9-2.8-1.2-.8-.3-1.4-.8-1.9-1.2-.6-.4-1.1-.8-1.9-.8-1.2,0-3.6,1-5.8,3-.5-.4-.9-.6-1.4-.9,0,0-.2,0-.2-.1-.6-.4-1.1-.7-1.7-1-.1.3-.2.5-.2.7-.3-.2-.7-.4-1-.5.3.2.6.3.9.5,1.3.7,2.5,1.5,3.7,2.4,0,0,0,0,0-.1l.3-.3s0,0,0,0t0,0c.1-.1.3-.2.4-.4,0,0,0,0,.1,0,0,0,.2-.2.3-.2,0,0,.1,0,.2-.1,0,0,.2-.1.2-.2,0,0,.1,0,.2-.1,0,0,.1,0,.2-.1,0,0,.1,0,.2-.1,0,0,.1,0,.2-.1,0,0,.1,0,.2-.1,0,0,.1,0,.2,0,0,0,.1,0,.2-.1,0,0,.1,0,.2,0,0,0,.1,0,.2-.1.1,0,.2-.1.3-.2,0,0,0,0,0,0,0,0,.2,0,.3-.1,0,0,0,0,0,0,0,0,.2,0,.2,0,0,0,0,0,.1,0,.1,0,.2,0,.3-.1,0,0,.1,0,.2,0,0,0,0,0,.1,0,0,0,.1,0,.2,0,0,0,0,0,.1,0,0,0,.1,0,.2,0h0c0,0,.2,0,.2,0h0c.2,0,.3,0,.4,0,.2,0,.4,0,.5.2.2.1.5.3.7.4,0,0,.1,0,.2.2,0,0,.1.1.2.2.4.3.8.6,1.4.8,0,0,.1,0,.2,0,.5.2,1,.4,1.6.6.2,0,.4.1.5.2.2.1.5.2.7.3.3.2.6.4.8.7.2.2.3.3.4.6.2.3.2.7.2,1.1s-.1,1.1-.4,1.8c0,.2-.2.4-.2.6,0,.2-.1.3-.2.5,0,.2-.2.4-.3.6-.5,1.1-1.2,2.4-2,3.8-.1.2-.2.5-.4.7-.6-.9-1.1-1.8-1.8-2.6-.6-.9-1.3-1.7-2-2.5.2-.3.3-.6.4-.9s.1-.3.2-.4c0-.2.2-.4.2-.5,0-.2.2-.5.2-.7,0-.3.1-.5.2-.7.2,0,.3,0,.5-.1.3,0,.6-.1.8-.2.6-.1,1.2,0,1.6,0,0,0,0,0,0,0,.1,0,.3,0,.4.1.2,0,.3.1.5.2.1,0,.2.1.3.2.3.2.4.5.5.8,0,.2.1.4.2.6,0,.1,0,.3,0,.4v.2h0v.2h0c0,.2,0,.3,0,.5,0,.2,0,.3-.1.5h0s0-.1.2-.3c0,0,0-.2.1-.3,0-.3.2-.6.3-1,0-.1,0-.3,0-.4,0-.2,0-.3,0-.5,0-.6-.3-1.2-.8-1.6-.2-.1-.4-.3-.5-.4s-.4-.2-.6-.2c-.1,0-.3,0-.4,0-.3,0-.6,0-.9,0-.8,0-1.6.3-2.2.8-.2.1-.5.3-.7.5-.2.2-.5.4-.7.6-.1.1-.3.2-.4.3-.4.4-.8.8-1.3,1.2-.6.6-1.2,1.2-1.8,1.7v-1.2h-1.9v-.3c0-.2-.4,0-.7.3h-.3c0-.2,0-.5.2-.7.1-.4-.8.3-1.4.7h-.3c.3-.5.9-1.5,1-1.8.2-.4-1.5,1.2-2.2,1.8h-1s0,0,0,0c.1-.1.2-.2.3-.3,0,0,.2-.2.2-.2.1-.1.2-.2.3-.3,0,0,.2-.2.2-.3,0-.1.2-.2.3-.3,0,0,.2-.2.2-.3,0-.1.2-.2.3-.3,0,0,.2-.2.2-.3,0,0,.1-.2.2-.2,0-.1.2-.2.3-.3.1-.2.3-.3.4-.5.1-.1.2-.3.4-.4-1.5-1.1-3.1-2.1-4.7-2.9-5-2.5-10.5-3.9-16.2-3.9s-11.3,1.3-16.3,3.9c-1.6.8-3.1,1.7-4.6,2.8.2.2.3.3.4.5.1.1.2.3.3.4.8,1,1.7,2,2.7,3.1h-.5c-.3-.3-1-.9-1.3-.9-.2,0,0,.5,0,.9h-.3c-.4-.4-1-.8-1.2-.8-.2,0,0,.4.1.8h-.4c-.4-.3-.8-.7-1-.8-.3-.2,0,.3.4.8h-2.4v1.3c-.6-.5-1.1-1.1-1.8-1.8-1.2-1.2-2.1-2.1-3.1-2.7-.9-.6-1.9-.8-3.1-.8s-1.1.2-1.5.6-.8.9-.8,1.6c0,1.2.6,2.5.6,2.5,0-.4-.2-.7-.2-1,0,0-.3-3.9,4.9-2.3.2.9.6,2.1,1.2,3.3-1.4,1.6-2.6,3.3-3.8,5.1-1.8-3.4-3.5-6.2-3.4-8,0-1.1.6-1.8,1.5-2.3.8-.5,1.9-.8,2.8-1.2.9-.3,1.5-.8,2-1.2.5-.4,1-.6,1.7-.6s2.9.7,4.8,2.3c.1.1.3.2.4.4.2.1.3.3.5.4,1.1-.8,2.3-1.6,3.5-2.2,4.3-2.4,9-3.9,13.9-4.4-4.2.4-8.2,1.5-11.9,3.3-.5.2-1.1.6-1.6.9,0,0,0,.1,0,0,0-.1-.1-.3-.2-.6-1.2.7-2.4,1.4-3.5,2.2-2.2-2-4.7-3-5.8-3s-1.4.3-1.9.7c-.6.4-1.1.8-1.9,1.2-.8.3-1.9.6-2.8,1.2-.9.5-1.8,1.3-1.8,2.6,0,2.1,2,5.1,3.8,8.6-3.3,5.5-5.1,11.9-5.1,18.8,0,12.5,6.2,23.5,15.6,30.2,0,0-.1.2-.2.3-.4.5-.7,1-.7,1.8,0,1.4.9,2.3,2,2.4,0,0,.2,0,.3,0,.6,0,1.2-.2,1.7-.4,0,.1-.1.3-.2.5h0c0,.8.6,1.2,1.1,1.3.1,0,.2,0,.3,0h0c.3,0,.5,0,.7-.1,0,0,.1.2.2.2.2.2.5.4.9.4h0c.2,0,.5,0,.8-.3,0,0,0,0,.1.1.2.2.4.3.8.3.3,0,.7,0,.9-.4,0,0,0-.1.1-.2,0,0,.1.2.2.3.2.4.5.9.9,1.2h0c.2.2.5.3.8.3.9.1,1.5-.2,1.9-.6.2-.2.2-.4.3-.6,0-.3,0-.7-.2-1.1.4,0,.8.2,1.2.3h0l3.2.8v4.8c-11.2-1.2-20.9-7.1-27.8-15.3-1.1-1.4-2.3-2.1-3.7-2.1s-1.6.6-1.8,1.4c-.4,1.5-2.2,3-3.5,3.9-.4.3-.6.7-.6,1.2,0,.8.7,1.5,1.5,1.5s.8-.2,1.1-.5c0,0,.1-.1.2-.2,8.2,10.5,20.6,17.6,34.6,18.8h0c0,2,1.6,3.7,3.5,4.1.2.3.5.4.8.4s.6-.2.8-.4c2-.3,3.6-2,3.7-4.1h0c14.1-1.2,26.4-8.3,34.6-18.8,0,0,.1.1.2.2.3.3.7.5,1.1.5.8,0,1.5-.7,1.5-1.5s-.3-.9-.6-1.2"/>
  <path class="st0" d="M76,89.2v-.4c.1,0,.8.2.8.2v.4c-.2.3-.4.4-.6.3-.2,0-.3-.3-.2-.5"/>
  <path class="st0" d="M41.3,44.9c.5,0,.9.3.9.8,0,.2,0,.4-.1.6-.2-.2-.5-.3-.7-.3-.3,0-.4.2-.5.3,0,0,0,0,0,.1,0,0,0,0-.1-.1,0-.1-.2-.3-.2-.5,0-.5.3-.9.8-.9M41.5,46.7c-.2,0-.3,0-.4,0,0-.2.1-.3.3-.3.2,0,.3,0,.4.3,0,0-.2,0-.3,0"/>
  <path class="st0" d="M76.7,89.4v-.4c.1,0-.6-.2-.6-.2v.4c-.2.3-.1.5,0,.5.2,0,.4,0,.5-.3"/>
  <path class="st0" d="M16.3,95.5c.4-.2.6-.7.3-1.1-.2-.4-.8-.5-1.2-.3-.4.3-.6.7-.4,1.1.3.4.7.5,1.2.3"/>
  <path class="st0" d="M42.2,45.7c0-.5-.4-.8-.9-.8-.5,0-.8.4-.8.9,0,.2,0,.3.2.5,0,0,0,0,.1.1,0,0,0,0,0-.1,0-.1.2-.3.5-.3"/>
  <polygon class="st0" points="74.2 64.4 74.5 64.9 75 64.4 74.2 64.4"/>
  <path class="st0" d="M41.4,46.4c-.1,0-.2.1-.3.3.1,0,.3,0,.4,0,0,0,.2,0,.3,0-.1-.2-.2-.3-.4-.3"/>
  <path class="st0" d="M13.5,64.9c-.2.5,0,.9.5,1.1.4.2.9,0,1.1-.4s0-.9-.5-1.1c-.5-.2-.9,0-1.1.4"/>
</svg>